<?xml version="1.0" encoding="UTF-8"?>
<svg id="Layer_2" data-name="Layer 2" xmlns="http://www.w3.org/2000/svg" viewBox="0 0 53.84 53.84">
  <defs>
    <style>
      .cls-1 {
        fill: #fff;
      }
    </style>
  </defs>
  <g id="Layer_11" data-name="Layer 11">
    <path class="cls-1" d="M25.23,0c-.61.16-1.3.14-1.93.23C11.44,1.8,1.78,11.43.23,23.31c-.08.63-.06,1.32-.23,1.93v3.36c.16.61.14,1.3.23,1.93,1.57,11.87,11.2,21.53,23.07,23.08.63.08,1.32.06,1.93.23h3.36c.61-.16,1.3-.14,1.93-.23,11.86-1.57,21.52-11.2,23.07-23.08.08-.63.06-1.32.23-1.93-.05-1.11.06-2.26,0-3.36C53.04,11.9,41.92.78,28.59,0h-3.36ZM31.77,13.48c1.49.25,2.39,2.08,1.53,3.37l-9.85,10.02,9.35,9.45c2.23,2.34-.52,5.44-3.16,3.26-3.78-3.12-7.17-7.68-10.93-10.93-.97-1.18-1.02-2.21-.05-3.42,3.76-3.3,7.14-7.75,10.93-10.94.67-.57,1.25-.97,2.19-.81Z"/>
  </g>
</svg>