<?xml version="1.0" encoding="UTF-8"?>
<svg id="Layer_2" data-name="Layer 2" xmlns="http://www.w3.org/2000/svg" xmlns:xlink="http://www.w3.org/1999/xlink" viewBox="0 0 128.96 128.96">
  <defs>
    <style>
      .cls-1 {
        filter: url(#drop-shadow-1);
      }

      .cls-2 {
        fill: #fff;
      }
    </style>
    <filter id="drop-shadow-1" x="-8.26" y="-8.45" width="160" height="160" filterUnits="userSpaceOnUse">
      <feOffset dx="7" dy="7"/>
      <feGaussianBlur result="blur" stdDeviation="5"/>
      <feFlood flood-color="#000" flood-opacity=".4"/>
      <feComposite in2="blur" operator="in"/>
      <feComposite in="SourceGraphic"/>
    </filter>
  </defs>
  <g id="page06">
    <g class="cls-1">
      <path class="cls-2" d="M68.79,0l6.35.83c27.49,4.53,49.67,27.31,53.29,55,.2,1.51.15,3.17.54,4.62v8.06c-.39,1.45-.34,3.11-.54,4.62-3.67,27.73-25.74,50.42-53.29,55l-6.6.83h-8.06c-1.45-.39-3.11-.34-4.62-.54-25.68-3.41-47.27-22.71-53.77-47.71L.05,68.76c.13-2.81-.17-5.77,0-8.56C2.01,28.53,28.59,1.95,60.23,0h8.56ZM61.18,8.13C17.29,10.72-7.23,61.16,18.59,97.2c23.91,33.38,74.32,31.01,94.81-4.59,22.36-38.86-7.71-87.1-52.21-84.48Z"/>
      <path class="cls-2" d="M55.88,28.27c1.12-.18,2.22.07,3.09.82l32.86,32.87c1.19,1.44,1.2,3.6,0,5.05l-32.86,32.87c-3.77,2.79-8.27-1.44-5.91-5.41l29.8-30.08-29.8-29.89c-1.64-2.51-.07-5.76,2.82-6.23Z"/>
    </g>
  </g>
</svg>