<?xml version="1.0" encoding="UTF-8"?>
<svg id="Layer_2" data-name="Layer 2" xmlns="http://www.w3.org/2000/svg" viewBox="0 0 152.41 153.88">
  <defs>
    <style>
      .cls-1 {
        fill: #ed1c24;
      }
    </style>
  </defs>
  <g id="Layer_14" data-name="Layer 14">
    <g>
      <path class="cls-1" d="M96.28,98.6c1.11-.05,1.15,2.73,1.29,3.63,5.9,37.38-22.69,62.39-58.45,47.08C11.65,137.54-7.68,102.38,2.98,73.18c9.83-26.91,42.04-31.02,63.72-15.54-16.5-7.89-36.28-6.69-46.4,10.12C.09,101.34,42.43,153.57,78.6,136.66c7.8-3.65,17.68-15.98,17.68-24.79v-13.27Z"/>
      <path d="M81.87,105.8c-2.16,16.06-19.54,20.68-32.9,14.7-28.87-12.92-27.14-62.02,7.88-53.39,1.11.27,4.16.81,4.54,1.89-26.86-5.77-31.59,24.73-14.42,39.84,9.63,8.48,24.08,9.9,31.74-1.65l3.16-12.39c-.33,3.48.45,7.63,0,11Z"/>
      <path d="M106.15,50.06c-14.57,13.09-29.16,27.29-43.2,41.37l-3.07,1.09,43.23-48.16-3.02,1.14c3.04-17.22,13.36-31.96,23.89-45.51l-4.91,26.78-3.05,1.67c-.25,2.24.98-.11,2.66,1.04,1,.69,3,2.87,3.35,4.15-.35,2.01-14.89,13.32-15.87,16.41,5.9-5.31,13.85-10.7,17.61-18.04l28.66-6.99-25.28,18.33-19.98,8.1c-1.41.51-1.21-.75-1.01-1.4Z"/>
    </g>
  </g>
</svg>