<?xml version="1.0" encoding="UTF-8"?>
<svg id="Layer_2" data-name="Layer 2" xmlns="http://www.w3.org/2000/svg" viewBox="0 0 22.08 29.89">
  <defs>
    <style>
      .cls-1 {
        fill: #58595b;
      }
    </style>
  </defs>
  <g id="Page07">
    <g>
      <path class="cls-1" d="M11.86,0l1.87.32c4.8,1.19,8.37,5.71,8.35,10.68-.01,3.84-4.31,10.22-6.55,13.36-1.36,1.9-2.79,3.76-4.31,5.53h-.35c-1.63-1.89-3.16-3.89-4.6-5.94C4.1,20.89.01,14.74,0,11-.02,6.03,3.55,1.51,8.35.32l1.87-.32h1.63ZM9.98.95C4.61,1.4,0,6.93,1.08,12.32c.87,4.31,5.52,10.71,8.24,14.23.44.57,1.08,1.52,1.57,1.99.05.04.09.12.17.11,2.8-3.49,5.6-7.17,7.75-11.11,1.98-3.6,3.25-6.63,1.44-10.68C18.46,2.83,14.36.58,9.98.95Z"/>
      <path class="cls-1" d="M10.5,5.91c4.2-.39,7.09,4.09,4.92,7.73-2.14,3.6-7.55,3.18-9.13-.7-1.27-3.13.83-6.71,4.2-7.03ZM10.97,6.78c-5.52.1-5.39,8.48.1,8.46,5.53-.03,5.48-8.55-.1-8.46Z"/>
    </g>
  </g>
</svg>