<?xml version="1.0" encoding="UTF-8"?>
<svg id="Layer_2" data-name="Layer 2" xmlns="http://www.w3.org/2000/svg" viewBox="0 0 62 78">
  <g id="Layer_12" data-name="Layer 12">
    <g>
      <path d="M0,78V0h60.5l1.5,1.5v75l-1.5,1.5H0ZM59,3H3v72h56V3Z"/>
      <path d="M49,11v37H13.5l-1.5-1.5V11h37ZM15,14.5v30.5h30.5c.53,0,1.64-1.66,1.48-2.52V14.02c-9.04-.13-19.59-2.12-28.53-1.07-1.46.17-2.57.12-3.45,1.55Z"/>
      <polygon points="49 59 49 62 13.5 62 12.02 60.5 13.5 59 49 59"/>
      <path d="M41.99,41h-2.99c1.79-4.13-4.66-8.16-4.91-9.64-.14-.82,5.71-11.19-2.67-11.32-11.24-.17-3.25,10.63-3.44,11.4-.23.93-3.01,1.77-3.9,3.16-1.09,1.71-.8,4.91-2.08,5.92-7.04.96,1.61-8.81,1.65-10.02.07-1.76-2.43-2.59-1.01-7.32,2.64-8.82,15.7-7.96,16.4,1.33.19,2.45-1.06,5.6-.82,6.88.33,1.74,5.69,5.42,3.76,9.62Z"/>
    </g>
  </g>
</svg>