<?xml version="1.0" encoding="UTF-8"?>
<svg id="Layer_2" data-name="Layer 2" xmlns="http://www.w3.org/2000/svg" viewBox="0 0 18.97 18.87">
  <defs>
    <style>
      .cls-1 {
        fill: #58595b;
      }
    </style>
  </defs>
  <g id="Page07">
    <path class="cls-1" d="M3.69.03c.34-.03,1-.1,1.25.17l2.48,4.28c.34,1.61-2.07,2.08-2.2,2.99-.05.33.44,1.04.64,1.35.98,1.58,2.37,3.07,3.93,4.09.28.18,1.19.77,1.45.84.72.19,1.23-.95,1.65-1.4.68-.75,1.16-1,2.11-.55,1.14.55,2.23,1.38,3.37,1.93,1.39,1.24.19,3.53-1.16,4.32-1.82,1.06-4.28,1.02-6.21.28C5.94,16.4-.37,10.02.02,4.26.16,2.1,1.41.24,3.69.03ZM1.91,1.78c-1.14,1.17-1.11,3.31-.78,4.8,1.01,4.44,5.85,9.15,9.98,10.82,1.95.79,5.62.95,6.67-1.29.29-.63.51-1.29-.13-1.74-.97-.67-2.23-1.17-3.22-1.85-.39-.16-.75.3-.99.57-.68.76-1.26,1.97-2.52,1.5-1.57-.59-3.69-2.46-4.74-3.76-.49-.6-1.89-2.56-1.93-3.26-.06-1.15,1.45-1.69,2.08-2.37.15-.16.29-.37.16-.59L4.3.95c-.83-.11-1.81.24-2.39.84Z"/>
  </g>
</svg>