<?xml version="1.0" encoding="UTF-8"?>
<svg id="Layer_2" data-name="Layer 2" xmlns="http://www.w3.org/2000/svg" viewBox="0 0 89.67 71.64">
  <defs>
    <style>
      .cls-1 {
        fill: #ed1c24;
      }
    </style>
  </defs>
  <g id="page02">
    <g>
      <path class="cls-1" d="M31.32,6.18h50.33c3.28,0,8.18,5.93,8.01,9.33v47.83c-.19,4.11-3.4,7.69-7.48,8.29H7.78c-3.94-.3-7-3.84-7.71-7.53L.03,14.98c-.47-3.24,4.89-8.79,7.76-8.79h5.39V2.11c0-.16.81-1.39,1.06-1.57.5-.36.85-.36,1.43-.41,4.42-.4,9.44.31,13.93.03.65-.16,1.73,1.31,1.73,1.69v4.34ZM29.48,6.18V2.11c-.23-.38-.52-.36-.91-.41-2.39-.28-10.04-.32-12.38,0-.35.05-1.17.34-1.17.67v3.81h14.46ZM87.82,26.16h-16.43l-.62-.97c-.08-.27.53-.87.62-.87h16.03l.39-.39v-8.94c0-2.57-4.11-7.04-6.95-6.98H8.31c-2.13.09-6.43,3.94-6.43,5.93v10.38h16.69c.77,0,.75,1.84-.26,1.84H1.88v38.24c0,2.39,4.89,6.32,7.48,5.66l72.02-.02c2.06.3,6.44-3.63,6.44-5.38V26.16Z"/>
      <path class="cls-1" d="M26.22,57.01c-16.55-17.51-2.63-45.51,21.26-43.72,12.12.9,22.59,11.42,23.52,23.52,1.9,24.61-27.78,38.18-44.78,20.2ZM41.78,15.2c-10.29,1.05-19.01,10.05-20.64,20.1-3.27,20.13,18.42,35.05,36.12,24.82,22.33-12.92,11.52-47.67-15.47-44.91Z"/>
      <path class="cls-1" d="M75.64,11.01c6.88-.23,7.6,10.05,1.25,10.92-8.26,1.13-8.65-10.67-1.25-10.92ZM73.2,19.23c2.96,2.96,8.15-.86,5.81-4.63-2.9-4.68-9.68.76-5.81,4.63Z"/>
      <path class="cls-1" d="M42.83,20.19c15.9-1.64,26.63,15.99,17.35,29.18-7.49,10.64-23.36,10.49-30.65-.26-7.75-11.42-.43-27.5,13.3-28.92ZM42.83,22.03c-20.9,2.26-18.35,34.55,2.81,33.56,22.59-1.06,20.62-36.1-2.81-33.56Z"/>
      <path class="cls-1" d="M43.58,26.72c.76-.25,3.68.56,4.56.89,3.58,1.35,6.67,4.65,7.69,8.34.27.98,1.33,5.28-.69,4.64-.97-.31-.59-2.39-.76-3.19-1-4.76-4.58-7.63-9.12-8.75-.55-.13-1.56-.02-1.87-.23-.42-.29-.41-1.49.19-1.69Z"/>
    </g>
  </g>
</svg>