<?xml version="1.0" encoding="UTF-8"?>
<svg id="Layer_2" data-name="Layer 2" xmlns="http://www.w3.org/2000/svg" viewBox="0 0 95.13 94.95">
  <g id="Layer_12" data-name="Layer 12">
    <path d="M24.98,88.87c-8.15-3.32,5.61-21.76,7.01-21.79,6.3-.11-3.46,12.06-3.7,13.56-1.67,10.54,25.98,8.54,32.21,7.9l17.36-31.46-27.94-14.95c-4.56,8.29,5.76,13.89,2.86,22.32-1.06,3.1-6.53,4.75-9.54,3.93-3.8-1.03-20.16-24.56-22.97-29.38l-5.41,4.31L1.45,35.16l-.76-2.45L19.59,0c2.34.03,38,20.86,40.45,23.43,7.13,7.46,1.62,15.29,4.66,20.28l18.85,10.86c2.24,3.43-14.61,26.19-16.43,32.05-.83,2.67,2.3,2.26,3.83,2.26h24.15c.33,4.96-3.41,4.46-6.93,4.76-20.95,1.75-60.24,1.8-81.13-.07-2.45-.22-4.62-1.24-7-1.59-.44-.59,2.05-3.1,2.33-3.1h22.6ZM29.65,9.42l-9.33-3.14-14.04,28.02,9.32,3.15,14.04-28.03ZM59.26,39c3.85-15.73-14.46-17.79-24.43-24.74l-2.81,1.34-9.86,18.21,22.32,30.12c11.07-1.84-8.94-23.12-5.46-26.48,1.83-1.77,4.95.84,5.45,3.14l2.31-.04,2.44-4.66,10.05,3.1Z"/>
  </g>
</svg>