<?xml version="1.0" encoding="UTF-8"?>
<svg id="Layer_2" data-name="Layer 2" xmlns="http://www.w3.org/2000/svg" viewBox="0 0 19.25 19.19">
  <defs>
    <style>
      .cls-1 {
        fill: #58595b;
      }
    </style>
  </defs>
  <g id="Page07">
    <g>
      <path class="cls-1" d="M16.6,16.23c-4.51,4.81-12.73,3.57-15.6-2.36C-2.09,7.46,2.34.15,9.44,0c8.57-.18,12.99,10.01,7.16,16.23ZM15.47,4.09C11.57-.08,4.51,1.19,2.28,6.43c-2.93,6.88,4.27,13.61,10.96,10.28,4.73-2.35,5.83-8.76,2.23-12.62Z"/>
      <path class="cls-1" d="M14.08,7.21l-1.5.38c-.65-1.48-1.95-2.17-3.56-1.89-2.55.44-3.12,3.65-2.43,5.76,1,3.05,5.34,2.71,6.12-.3.08,0,.15,0,.23.02.15.03,1.27.37,1.32.42s.03.05.02.1c-.66,2.13-2.23,3.35-4.5,3.39-3.46.07-5.37-2.53-5.2-5.83.18-3.34,2.26-5.26,5.63-5.07,1.83.1,3.43,1.19,3.88,3.01Z"/>
    </g>
  </g>
</svg>