<?xml version="1.0" encoding="UTF-8"?>
<svg id="Layer_2" data-name="Layer 2" xmlns="http://www.w3.org/2000/svg" viewBox="0 0 96.54 78.31">
  <defs>
    <style>
      .cls-1 {
        fill: #f9ed32;
      }
    </style>
  </defs>
  <g id="Layer_21" data-name="Layer 21">
    <g>
      <path class="cls-1" d="M0,20.76c.78-1.57,2.53-2.08,4.02-1.1l25.2,19.58L46.31.79c1.27-1.21,3.45-1.04,4.3.57l16.52,37.5,25.39-19.2c1.49-.99,3.24-.47,4.02,1.09v1.89l-17.97,45.95-.93.67-57.75.15c-.87.02-1.46-.41-1.97-1.05L0,22.64v-1.89ZM88.24,29.43l-20.49,15.62c-1.21.76-2.8.54-3.64-.63l-15.65-35.54c-.42.21-.59.79-.78,1.19-5.29,10.89-9.41,22.85-14.83,33.63-1.12,2.23-2.25,3.08-4.62,1.54l-19.93-15.52,13.42,34.57,52.87.05,13.66-34.9Z"/>
      <path class="cls-1" d="M19.56,73.41l57.7.1c2.13.99,2.14,3.81,0,4.8H19.29c-2.26-1.03-2.09-4.16.27-4.9Z"/>
    </g>
  </g>
</svg>