<?xml version="1.0" encoding="UTF-8"?>
<svg id="Layer_2" data-name="Layer 2" xmlns="http://www.w3.org/2000/svg" viewBox="0 0 59.01 72.01">
  <defs>
    <style>
      .cls-1 {
        fill: #ed1c24;
      }
    </style>
  </defs>
  <g id="page02">
    <g>
      <path class="cls-1" d="M9.42,4.78l.4-.5c.19-.87.08-4.18,1.08-4.28h37.45s1.24,4.78,1.24,4.78h8.92c.71.57.47,1.66.41,2.49-.58,7.34-5.46,15.62-11.47,19.77-1.86,1.29-4.8,2.05-6.12,3.02-.53.39-1.41,1.77-2.14,2.4-1.65,1.4-3.42,2.81-5.46,3.61l-.05,13.64h7.14l.3,6.25,2.19.04.45.45c.41,1.83-.73,7.73.82,8.7.48.3,1.14.24,1.59.49,1.11.61.61,5.1.31,6.38H12.55c-.3-1.28-.8-5.77.31-6.38.45-.25,1.11-.19,1.59-.49,1.54-.97.4-6.87.82-8.7l.45-.45,2.49-.04.3-6.25h6.84v-13.68c-3.34-.66-5.62-4.5-8.06-6.07-1.64-1.06-3.8-1.59-5.72-2.91C5.46,22.83.76,14.71.09,7.27c-.07-.82-.29-1.93.41-2.49h8.92ZM31.59,34.83c11.87-5.27,16.85-19.71,15.47-31.98l-.45-.74H12.4l-.45.74c-1.18,10.62,2.31,22.8,11.04,29.42,1.43,1.09,3.05,1.86,4.43,3.01v14.43h4.16v-14.87ZM9.57,6.86H2.13c1.13,7.96,5.35,15.89,12.64,19.64l-2.67-5.66c-1.69-4.46-2.38-9.22-2.53-13.98ZM56.87,6.86h-7.44c-.14,5.42-1.08,10.68-3.22,15.67-.58,1.36-1.49,2.59-1.98,3.97,7.3-3.78,11.52-11.65,12.64-19.64ZM39.02,51.78h-18.74l.28,4.04,17.98.09c.94-.31.31-3.25.49-4.12ZM41.7,58.03h-24.39v6.1c0,.23-1.03,2.21-1.28,2.44-1.22,1.11-2.16.55-1.7,3.36h30.34c1.16-2.84-2.97-3.4-2.97-5.5v-6.4Z"/>
      <path class="cls-1" d="M19.02,4.86c.69.72.3,5.81.37,7.21.1,1.9.8,3.98.55,5.91l-.7.51c-.37.03-.63-.04-.9-.31-.48-.49-.99-5.08-1.05-6.09-.08-1.28-.21-5.84.07-6.79.23-.77,1.11-1,1.65-.43Z"/>
    </g>
  </g>
</svg>