<?xml version="1.0" encoding="UTF-8"?>
<svg id="Layer_2" data-name="Layer 2" xmlns="http://www.w3.org/2000/svg" viewBox="0 0 79.5 79.38">
  <defs>
    <style>
      .cls-1 {
        fill: #d7df23;
      }
    </style>
  </defs>
  <g id="Layer_1-2" data-name="Layer 1">
    <g>
      <path class="cls-1" d="M37.37.07c31.83-1.82,52.99,33.04,36.23,60.38-14.94,24.36-50.04,25.42-66.43,1.99C-10.6,37.03,6.63,1.83,37.37.07ZM37.54,5.36C12.27,6.94-2.7,34.55,9.76,56.7c12.78,22.73,45.73,23.3,59.32,1.03,14.55-23.84-3.77-54.11-31.53-52.37Z"/>
      <path class="cls-1" d="M42.39,23.49c4.09.52,8.51,4.21,7.91,8.69-.38,2.83-4.56,3.1-5.24.14-.09-.39,0-.78-.12-1.21-1.02-3.93-12.4-3.79-10.26,2.49.9,2.65,6.69,3.69,9.13,4.77,2.71,1.21,4.96,3.06,5.97,5.94,2.04,5.81-1.57,10.8-7.4,11.63.22,2.28-.03,5.3-3.07,4.96-2.43-.27-2.35-3.13-2.24-4.96-4.01-.54-7.8-3.59-7.94-7.86-.09-2.8,3-4.23,4.7-2.19,1.27,1.52-.14,3.21,2.64,4.45,3.34,1.5,10.07.55,8.3-4.49-.93-2.64-6.67-3.69-9.12-4.77-2.56-1.13-4.72-2.82-5.76-5.49-2.34-6.01,1.06-11.06,7.19-12.08-.09-1.98-.22-4.52,2.28-4.92,2.95-.47,3.27,2.75,3.04,4.91Z"/>
    </g>
  </g>
</svg>