<?xml version="1.0" encoding="UTF-8"?>
<svg id="Layer_2" data-name="Layer 2" xmlns="http://www.w3.org/2000/svg" viewBox="0 0 117.82 62.91">
  <defs>
    <style>
      .cls-1 {
        fill: #ed1c24;
      }

      .cls-2 {
        fill: #262262;
      }
    </style>
  </defs>
  <g id="Layer_13" data-name="Layer 13">
    <g>
      <path class="cls-1" d="M41.5,38.14c-2.42.48-4.9.39-7.36.48-5.72.21-21.22.62-25.7-2.74-2.39-1.79-1.56-5.74,1.1-6.82.87-.35,1.53-.33,2.45-.29,3.52.16,7.4,1.01,11,1.29,5.77.45,11.54.26,17.29-.32,1.09-.11,3.06-.24,4.03-.49.48-.12,1.49-1,2.27-1.29,2.7-1.01,7.22-.48,10.18-.47,3.79,0,11.37-.76,14.63.56.73.29,1.48,1.03,2.04,1.2,1.26.39,4.64.54,6.13.66,9.1.72,17.99.06,26.99-1.3,4.05.37,5.81,5.68,1.92,7.74-5.32,2.82-18.72,2.52-24.87,2.29-2.59-.1-5.18-.1-7.75-.48-.23.05-.26,1.25-.26,1.52,0,4.94.31,9.94.18,14.89-.11,4.19-2.43,7.78-6.87,8.16-6.61.56-14.09-.37-20.79-.08-3.39-.53-6.62-3.73-6.62-7.28v-17.22Z"/>
      <path class="cls-2" d="M38.11,40.08v14.31c0,2.61-2.98,5.78-5.58,6.06-4.03.43-8.68-.02-12.78,0-2.86,0-5.05.61-7.59-1.29-1.1-.82-1.29-1.46-1.99-2.54-.1-.16.02-.29-.36-.21-.81,3.35-3.37,7.38-7.39,5.36-2.73-1.37-2.83-3.92-1.9-6.49,2.11-5.83,5.02-11.43,7.15-17.26l.29-.36c2.35,1.02,4.9,1.55,7.44,1.9,7.5,1.06,15.14.78,22.69.51Z"/>
      <path class="cls-2" d="M79.65,40.08c2.13.19,4.25.14,6.39.16,6.11.05,12.44.12,18.51-1.04,1.79-.34,3.55-.85,5.24-1.53,2.33,5.66,4.93,11.26,7.12,16.97.36.93.91,1.98.91,2.99,0,3.88-4.58,6.09-7.53,3.48-1.47-1.3-1.61-3.24-2.58-4.85-.66,1.94-2.82,3.88-4.89,4.16-1.02.14-2.16,0-3.2.04-3.77.12-7.52.03-11.32,0-2.28-.02-3.47.36-5.63-.99-1.19-.75-3.02-3.17-3.02-4.58v-14.79Z"/>
      <path class="cls-1" d="M57.96.04c9.3-.78,15.63,9.19,11.27,17.41-3.96,7.46-14.55,8.26-19.71,1.6C43.74,11.61,48.64.82,57.96.04Z"/>
      <path class="cls-2" d="M23.2,6.35c13.12-.75,13.93,19.18.93,19.68-12.66.48-13.73-18.94-.93-19.68Z"/>
      <path class="cls-2" d="M93.36,6.35c13.03-.71,13.97,19.1.93,19.68-12.66.56-13.75-18.98-.93-19.68Z"/>
    </g>
  </g>
</svg>