<svg xmlns="http://www.w3.org/2000/svg" xmlns:xlink="http://www.w3.org/1999/xlink" width="800" zoomAndPan="magnify" viewBox="0 0 600 599.999999" height="800" preserveAspectRatio="xMidYMid meet" version="1.2"><defs><clipPath id="ce96b8aeba"><path d="M 294 279 L 306 279 L 306 425.609375 L 294 425.609375 Z M 294 279 "/></clipPath><clipPath id="7d9b40fab6"><path d="M 242.363281 174.359375 L 357.863281 174.359375 L 357.863281 290 L 242.363281 290 Z M 242.363281 174.359375 "/></clipPath></defs><g id="98accf7646"><g clip-rule="nonzero" clip-path="url(#ce96b8aeba)"><path style=" stroke:none;fill-rule:nonzero;fill:#ffffff;fill-opacity:1;" d="M 299.988281 425.609375 C 299.644531 425.609375 299.304688 425.574219 298.96875 425.507812 C 298.632812 425.441406 298.304688 425.34375 297.988281 425.210938 C 297.667969 425.078125 297.367188 424.917969 297.082031 424.726562 C 296.796875 424.535156 296.53125 424.320312 296.289062 424.074219 C 296.046875 423.832031 295.828125 423.570312 295.636719 423.28125 C 295.445312 422.996094 295.285156 422.695312 295.152344 422.378906 C 295.023438 422.058594 294.921875 421.734375 294.855469 421.394531 C 294.789062 421.058594 294.753906 420.71875 294.753906 420.375 L 294.753906 284.28125 C 294.753906 283.9375 294.789062 283.597656 294.855469 283.257812 C 294.921875 282.921875 295.023438 282.59375 295.152344 282.277344 C 295.285156 281.960938 295.445312 281.660156 295.636719 281.371094 C 295.828125 281.085938 296.046875 280.824219 296.289062 280.578125 C 296.53125 280.335938 296.796875 280.121094 297.082031 279.929688 C 297.367188 279.738281 297.667969 279.578125 297.988281 279.445312 C 298.304688 279.3125 298.632812 279.214844 298.96875 279.148438 C 299.304688 279.078125 299.644531 279.046875 299.988281 279.046875 C 300.332031 279.046875 300.671875 279.078125 301.011719 279.148438 C 301.347656 279.214844 301.675781 279.3125 301.992188 279.445312 C 302.308594 279.578125 302.613281 279.738281 302.898438 279.929688 C 303.183594 280.121094 303.449219 280.335938 303.691406 280.578125 C 303.933594 280.824219 304.152344 281.085938 304.34375 281.371094 C 304.53125 281.660156 304.695312 281.960938 304.824219 282.277344 C 304.957031 282.59375 305.054688 282.921875 305.125 283.257812 C 305.191406 283.597656 305.222656 283.9375 305.222656 284.28125 L 305.222656 420.375 C 305.222656 420.71875 305.191406 421.058594 305.125 421.394531 C 305.054688 421.734375 304.957031 422.058594 304.824219 422.378906 C 304.695312 422.695312 304.53125 422.996094 304.34375 423.28125 C 304.152344 423.570312 303.933594 423.832031 303.691406 424.074219 C 303.449219 424.320312 303.183594 424.535156 302.898438 424.726562 C 302.613281 424.917969 302.308594 425.078125 301.992188 425.210938 C 301.675781 425.34375 301.347656 425.441406 301.011719 425.507812 C 300.671875 425.574219 300.332031 425.609375 299.988281 425.609375 Z M 299.988281 425.609375 "/></g><g clip-rule="nonzero" clip-path="url(#7d9b40fab6)"><path style=" stroke:none;fill-rule:nonzero;fill:#f44336;fill-opacity:1;" d="M 357.566406 231.9375 C 357.566406 233.824219 357.476562 235.703125 357.289062 237.582031 C 357.105469 239.457031 356.828125 241.320312 356.460938 243.171875 C 356.09375 245.019531 355.636719 246.847656 355.089844 248.652344 C 354.539062 250.457031 353.90625 252.230469 353.183594 253.972656 C 352.464844 255.714844 351.65625 257.417969 350.769531 259.078125 C 349.878906 260.742188 348.910156 262.359375 347.863281 263.925781 C 346.816406 265.492188 345.695312 267.007812 344.5 268.464844 C 343.300781 269.921875 342.035156 271.316406 340.703125 272.652344 C 339.371094 273.984375 337.972656 275.25 336.515625 276.445312 C 335.058594 277.640625 333.546875 278.765625 331.976562 279.8125 C 330.410156 280.859375 328.792969 281.828125 327.132812 282.714844 C 325.46875 283.605469 323.765625 284.410156 322.023438 285.132812 C 320.28125 285.855469 318.507812 286.488281 316.703125 287.035156 C 314.898438 287.582031 313.070312 288.042969 311.222656 288.410156 C 309.371094 288.777344 307.511719 289.054688 305.632812 289.238281 C 303.757812 289.421875 301.875 289.515625 299.988281 289.515625 C 298.105469 289.515625 296.222656 289.421875 294.347656 289.238281 C 292.46875 289.054688 290.605469 288.777344 288.757812 288.410156 C 286.90625 288.042969 285.082031 287.582031 283.277344 287.035156 C 281.472656 286.488281 279.699219 285.855469 277.957031 285.132812 C 276.214844 284.410156 274.511719 283.605469 272.847656 282.714844 C 271.183594 281.828125 269.570312 280.859375 268 279.8125 C 266.433594 278.765625 264.921875 277.640625 263.460938 276.445312 C 262.003906 275.25 260.609375 273.984375 259.277344 272.652344 C 257.941406 271.316406 256.675781 269.921875 255.480469 268.464844 C 254.285156 267.007812 253.164062 265.492188 252.113281 263.925781 C 251.066406 262.359375 250.097656 260.742188 249.210938 259.078125 C 248.320312 257.417969 247.515625 255.714844 246.792969 253.972656 C 246.074219 252.230469 245.4375 250.457031 244.890625 248.652344 C 244.34375 246.847656 243.886719 245.019531 243.519531 243.171875 C 243.148438 241.320312 242.875 239.457031 242.6875 237.582031 C 242.503906 235.703125 242.410156 233.824219 242.410156 231.9375 C 242.410156 230.050781 242.503906 228.171875 242.6875 226.292969 C 242.875 224.417969 243.148438 222.554688 243.519531 220.703125 C 243.886719 218.855469 244.34375 217.027344 244.890625 215.222656 C 245.4375 213.417969 246.074219 211.644531 246.792969 209.902344 C 247.515625 208.160156 248.320312 206.457031 249.210938 204.796875 C 250.097656 203.132812 251.066406 201.515625 252.113281 199.949219 C 253.164062 198.378906 254.285156 196.867188 255.480469 195.410156 C 256.675781 193.953125 257.941406 192.558594 259.277344 191.222656 C 260.609375 189.890625 262.003906 188.625 263.460938 187.429688 C 264.921875 186.230469 266.433594 185.109375 268 184.0625 C 269.570312 183.015625 271.183594 182.046875 272.847656 181.15625 C 274.511719 180.269531 276.214844 179.464844 277.957031 178.742188 C 279.699219 178.019531 281.472656 177.386719 283.277344 176.839844 C 285.082031 176.289062 286.90625 175.832031 288.757812 175.464844 C 290.605469 175.097656 292.46875 174.820312 294.347656 174.636719 C 296.222656 174.453125 298.105469 174.359375 299.988281 174.359375 C 301.875 174.359375 303.757812 174.453125 305.632812 174.636719 C 307.511719 174.820312 309.371094 175.097656 311.222656 175.464844 C 313.070312 175.832031 314.898438 176.289062 316.703125 176.839844 C 318.507812 177.386719 320.28125 178.019531 322.023438 178.742188 C 323.765625 179.464844 325.46875 180.269531 327.132812 181.15625 C 328.792969 182.046875 330.410156 183.015625 331.976562 184.0625 C 333.546875 185.109375 335.058594 186.230469 336.515625 187.429688 C 337.972656 188.625 339.371094 189.890625 340.703125 191.222656 C 342.035156 192.558594 343.300781 193.953125 344.5 195.410156 C 345.695312 196.867188 346.816406 198.378906 347.863281 199.949219 C 348.910156 201.515625 349.878906 203.132812 350.769531 204.796875 C 351.65625 206.457031 352.464844 208.160156 353.183594 209.902344 C 353.90625 211.644531 354.539062 213.417969 355.089844 215.222656 C 355.636719 217.027344 356.09375 218.855469 356.460938 220.703125 C 356.828125 222.554688 357.105469 224.417969 357.289062 226.292969 C 357.476562 228.171875 357.566406 230.050781 357.566406 231.9375 Z M 357.566406 231.9375 "/></g><path style=" stroke:none;fill-rule:nonzero;fill:#ffffff;fill-opacity:1;" d="M 268.582031 237.171875 C 268.238281 237.171875 267.898438 237.136719 267.5625 237.070312 C 267.226562 237.003906 266.898438 236.90625 266.582031 236.773438 C 266.261719 236.640625 265.960938 236.480469 265.675781 236.289062 C 265.390625 236.097656 265.125 235.882812 264.882812 235.636719 C 264.640625 235.394531 264.421875 235.132812 264.230469 234.84375 C 264.039062 234.558594 263.878906 234.257812 263.746094 233.941406 C 263.617188 233.621094 263.515625 233.296875 263.449219 232.957031 C 263.382812 232.621094 263.347656 232.28125 263.347656 231.9375 C 263.347656 230.738281 263.40625 229.539062 263.527344 228.347656 C 263.644531 227.152344 263.820312 225.964844 264.054688 224.789062 C 264.289062 223.613281 264.578125 222.449219 264.925781 221.300781 C 265.273438 220.152344 265.679688 219.023438 266.136719 217.914062 C 266.597656 216.808594 267.109375 215.722656 267.675781 214.664062 C 268.242188 213.605469 268.855469 212.578125 269.523438 211.582031 C 270.191406 210.582031 270.90625 209.621094 271.667969 208.691406 C 272.425781 207.765625 273.230469 206.875 274.082031 206.027344 C 274.929688 205.179688 275.816406 204.375 276.746094 203.613281 C 277.671875 202.851562 278.636719 202.136719 279.632812 201.472656 C 280.632812 200.804688 281.660156 200.1875 282.71875 199.621094 C 283.777344 199.058594 284.859375 198.542969 285.96875 198.085938 C 287.078125 197.625 288.203125 197.222656 289.351562 196.875 C 290.5 196.527344 291.664062 196.234375 292.839844 196 C 294.019531 195.765625 295.203125 195.589844 296.398438 195.472656 C 297.59375 195.355469 298.789062 195.296875 299.988281 195.296875 C 300.332031 195.296875 300.671875 195.328125 301.011719 195.398438 C 301.347656 195.464844 301.675781 195.5625 301.992188 195.695312 C 302.308594 195.828125 302.613281 195.988281 302.898438 196.179688 C 303.183594 196.371094 303.449219 196.585938 303.691406 196.828125 C 303.933594 197.074219 304.152344 197.335938 304.34375 197.621094 C 304.53125 197.910156 304.695312 198.210938 304.824219 198.527344 C 304.957031 198.84375 305.054688 199.171875 305.125 199.507812 C 305.191406 199.847656 305.222656 200.1875 305.222656 200.53125 C 305.222656 200.875 305.191406 201.214844 305.125 201.550781 C 305.054688 201.890625 304.957031 202.214844 304.824219 202.535156 C 304.695312 202.851562 304.53125 203.152344 304.34375 203.4375 C 304.152344 203.726562 303.933594 203.988281 303.691406 204.230469 C 303.449219 204.476562 303.183594 204.691406 302.898438 204.882812 C 302.613281 205.074219 302.308594 205.234375 301.992188 205.367188 C 301.675781 205.5 301.347656 205.597656 301.011719 205.664062 C 300.671875 205.730469 300.332031 205.765625 299.988281 205.765625 C 299.132812 205.765625 298.277344 205.808594 297.425781 205.890625 C 296.570312 205.976562 295.722656 206.101562 294.882812 206.269531 C 294.042969 206.433594 293.210938 206.644531 292.390625 206.890625 C 291.570312 207.140625 290.765625 207.429688 289.972656 207.757812 C 289.183594 208.085938 288.410156 208.453125 287.652344 208.855469 C 286.894531 209.257812 286.160156 209.699219 285.449219 210.175781 C 284.738281 210.652344 284.050781 211.164062 283.386719 211.707031 C 282.722656 212.25 282.089844 212.824219 281.484375 213.429688 C 280.878906 214.035156 280.300781 214.671875 279.757812 215.332031 C 279.214844 215.996094 278.703125 216.683594 278.226562 217.398438 C 277.753906 218.109375 277.3125 218.84375 276.90625 219.601562 C 276.503906 220.355469 276.136719 221.128906 275.808594 221.921875 C 275.480469 222.714844 275.195312 223.519531 274.945312 224.339844 C 274.695312 225.160156 274.488281 225.992188 274.320312 226.832031 C 274.152344 227.671875 274.027344 228.519531 273.945312 229.371094 C 273.859375 230.226562 273.816406 231.078125 273.816406 231.9375 C 273.816406 232.28125 273.785156 232.621094 273.71875 232.957031 C 273.648438 233.296875 273.550781 233.621094 273.417969 233.941406 C 273.289062 234.257812 273.125 234.558594 272.9375 234.84375 C 272.746094 235.132812 272.527344 235.394531 272.285156 235.636719 C 272.042969 235.882812 271.777344 236.097656 271.492188 236.289062 C 271.207031 236.480469 270.902344 236.640625 270.585938 236.773438 C 270.269531 236.90625 269.941406 237.003906 269.605469 237.070312 C 269.265625 237.136719 268.925781 237.171875 268.582031 237.171875 Z M 268.582031 237.171875 "/></g></svg>