<?xml version="1.0" encoding="UTF-8"?>
<svg id="Layer_2" data-name="Layer 2" xmlns="http://www.w3.org/2000/svg" viewBox="0 0 17.62 32.85">
  <defs>
    <style>
      .cls-1 {
        fill: #58595b;
      }
    </style>
  </defs>
  <g id="Page07">
    <path class="cls-1" d="M3.44,8.99c.04-1.22.14-2.49.46-3.66C5.38-.21,11.68-.83,16.37.76c.44.15,1.14.29,1.22.82.18,1.1-.4,3.24-.76,4.34-.08.25-.18.7-.36.88-.44.45-.96.03-1.44-.1-.77-.21-1.59-.46-2.38-.22-1.17.35-1.28,1.91-1.33,2.94l3.82-.06c.49.18.6.47.64.97.12,1.38-.12,2.85-.07,4.24-.02.38-.34.56-.68.6l-3.19-.05c.02,2.1-.02,4.21,0,6.31.02,2.8.11,5.65.15,8.46,0,.65.06,1.5,0,2.12-.04.44-.23.71-.7.76-1.49.18-3.61-.02-5.19,0-.57,0-1.38.31-1.69-.42-.04-5.78.03-11.55-.16-17.31H.63c-.34,0-.53-.63-.55-.91-.08-1.04-.13-3.54,0-4.52.04-.26.27-.63.54-.63h2.81ZM4.28,10.37H1.47v3.1l.11.11h3.28s.38.13.43.15c.28.16.32.67.34.97.11,1.5-.02,3.04.15,4.52v12.15s4.74,0,4.74,0c.02-5.68-.08-11.34-.13-17.02.05-.29.27-.52.55-.62l3.38-.09v-2.99c-.84-.14-3.55.35-4.15-.04-.33-.21-.25-1.42-.22-1.82.26-3.43,2.48-4.53,5.62-3.39.07-.51.84-2.9.62-3.21-.18-.26-3.18-.77-3.65-.8-4.58-.27-7.19,1.76-7.63,6.32-.06.61.02,1.56-.09,2.1-.05.23-.3.52-.53.56Z"/>
  </g>
</svg>