<?xml version="1.0" encoding="UTF-8"?>
<svg id="Layer_2" data-name="Layer 2" xmlns="http://www.w3.org/2000/svg" viewBox="0 0 70.52 70.58">
  <defs>
    <style>
      .cls-1 {
        fill: #f7941d;
      }
    </style>
  </defs>
  <g id="Layer_1-2" data-name="Layer 1">
    <g>
      <path class="cls-1" d="M40.32,20.39c6.86.03,6.56,9.21-.02,10.03l-.06,36.26c-1.9,5.51-8.97,5.13-10.07-.68l-.05-35.77c-6.55-.33-6.66-9.89.02-9.84.51-4.95-.72-11.31.09-16.09.93-5.52,8.49-5.68,10.01-.37l.08,16.47Z"/>
      <path class="cls-1" d="M15.25,40.37c6.42.24,6.45,9.97-.02,9.84-.45,4.95.62,10.97-.03,15.79-.7,5.15-7.77,6.39-9.75,1.45-1.13-2.81.23-16.64-.4-17.24-6.82,0-6.64-9.51-.02-9.84l.04-36.15c1.61-5.99,9.38-5.49,10.12.74l.06,35.4Z"/>
      <path class="cls-1" d="M65.43,40.37c6.5.17,6.94,9.35.33,10l-.3.43c-.55,4.87.59,10.82-.08,15.56-.79,5.57-9.24,5.74-9.81-.31-.45-4.84.41-10.33-.03-15.24l-.3-.43c-6.58-.44-6.35-10.1.35-9.98l.02-36.52c1.26-5.27,9-5.05,9.76.37l.05,36.14Z"/>
    </g>
  </g>
</svg>