<?xml version="1.0" encoding="UTF-8"?>
<svg id="Layer_2" data-name="Layer 2" xmlns="http://www.w3.org/2000/svg" viewBox="0 0 78.32 70.47">
  <defs>
    <style>
      .cls-1 {
        fill: #ed1c24;
      }
    </style>
  </defs>
  <g id="page02">
    <g>
      <path class="cls-1" d="M12.28,42.68c-.11-.52-.94-1.26-1.49-1.38-2.77-.62-7.3.46-10.12-.06-.63-.12-.84-.47-.52-1.04L39.28,0l38.89,40.2c.32.57.11.93-.52,1.04-2.82.52-7.35-.56-10.12.06-.49.11-1.49.95-1.49,1.38v27.4l-.39.39H12.67l-.39-.39v-27.4ZM59.77,26.37c-10.21-14.22-32.49-13.97-41.72,1.14.39,2.12,2.92-2.07,3.37-2.57,8.69-9.57,23.75-10.47,33.52-1.96.66.57,3.26,3.18,3.53,3.78.15.33-.03.45-.37.37-.96-.23-3.29-1.85-3.16.02l5.63,1.71.25-.54c-.36-.98.89-4.83-.39-5.09-1.19.3-.46,2.21-.65,3.13ZM34.41,42.76c-10.53,6.02-4.09,21.82,7.88,18.45,7.04-1.98,9.29-11.51,4.17-16.7-.65-.65-2.17-1.25-2.34-2.1-.4-5.99.51-12.62,0-18.53-.54-6.26-8.14-6.79-9.6-.97l-.12,19.84ZM20.15,33.37c-.06-.06-.11-.67-.4-1.02-1.26-1.51-3.89-1.08-4.47.79-1.09,3.47,3.89,4.93,5.01,1.57,3.03-.5,2.91.64,4.52,2.24,1.75,1.74,3.95,1.68,6.27,1.16l-.11-.79c-.37-.51-2.82-.14-3.65-.26-2.09-.32-2.18-2.8-4.13-3.44-.8-.26-2.9-.12-3.02-.24ZM62.56,32.19c-.93-1-2.71-1-3.71-.09-.41.37-.6,1.22-.68,1.27-.38.24-2.42-.19-3.7.6-1.48.91-1.38,2.83-3.69,3.1-1.06.12-3.16-.53-3.53.64.23,1.13,4.08.64,4.96.26,1.62-.69,2.2-2.97,3.8-3.25.36-.06,1.97-.1,2.16.03.22.14.23,1.43,1.53,1.73,2.88.65,4.63-2.4,2.86-4.3ZM26.5,42.29h4.18c.49,0,.49-1.3,0-1.3h-4.18c-1.26,0-2.43,2.81-3.71,3.34-3.44,1.41-2.32-1.85-5.15-1.79-3.87.09-2.93,5.99.71,5.18,1.19-.26,1.69-1.83,2.19-1.99.88-.3,1.92.25,3.06-.34.96-.49,2.38-2.95,2.9-3.1ZM51.81,40.98c-.96-.19-3.05,0-4.18,0-.27,0-.54.82-.39,1.04.33.5,3.71.08,4.51.32,1.13.33,1.98,3.06,3.72,3.32.71.11,1.69-.15,2.29.06s.99,2,2.66,2.06c3.96.15,3.54-6.09-.47-5.18-1.68.38-1.16,2.25-3.42,2.01-2.52-.27-2.65-3.22-4.72-3.63ZM16.46,52.07v5.09h1.04s.52-2.87.52-2.87c4.58,8.55,15.37,13.1,24.85,11.67,5.81-.88,11.67-4.06,15.47-8.54.55-.65,3.37-4.56,3.26-5.09-.1-.49-.78-.46-1.19-.15s-2.24,3.47-2.98,4.33c-10.65,12.43-29.97,10.84-38.62-2.88.87-.43,2.91,1.28,3.53.4l.12-.79c-1.03-.06-5.61-2.42-6-1.18Z"/>
      <path class="cls-1" d="M38.57,20.17c1.98-.34,3.63.92,4.13,2.8l.11,20.24c.13.68,1.58,1.18,2.21,1.7,4.92,4.08,3.54,12.47-2.38,14.83-7.78,3.11-15.14-4.83-11.27-12.31,1.13-2.18,2.56-2.87,4.34-4.27l.06-20.29c.34-1.29,1.45-2.46,2.79-2.69ZM39.94,34.46v-10.83c0-.49-1.3-.49-1.3,0v4.04c-.63.02-1.39-.2-1.82.39-.15,1.17,1.1.92,1.83.91v3.13c-2.51-.36-2.51,1.66,0,1.3v2.98c-2.5.02-2.53,1.72,0,1.45v9.77c-4.51.76-4.62,7.32,0,8.13,5.16.9,6.75-7.3,1.31-7.98v-7.31l2.09-.13v-.91s-2.09,0-2.09,0v-3.65c2.86.4,2.86-1.7,0-1.3Z"/>
      <path class="cls-1" d="M16.78,32.96c1.05-1.05,3.05.53,2.04,1.91-1.18,1.63-3.32-.63-2.04-1.91Z"/>
      <path class="cls-1" d="M18.74,46.14c-1.39,1.38-3.3-.96-1.92-2.05,1.5-1.18,2.99.99,1.92,2.05Z"/>
      <path class="cls-1" d="M59.58,46.14c-1.09-1.08.42-3.13,1.91-2.04,1.63,1.18-.62,3.32-1.91,2.04Z"/>
      <path class="cls-1" d="M60.22,32.67c2.43-.65,2.29,3.65-.11,2.64-1.33-.56-1.01-2.34.11-2.64Z"/>
      <path class="cls-1" d="M38.57,48.87c3.99-.81,4.75,5.11,1.17,5.63-3.67.53-4.48-4.96-1.17-5.63Z"/>
    </g>
  </g>
</svg>