<?xml version="1.0" encoding="UTF-8"?>
<svg id="Layer_2" data-name="Layer 2" xmlns="http://www.w3.org/2000/svg" viewBox="0 0 69.14 63.08">
  <defs>
    <style>
      .cls-1 {
        fill: #ed1c24;
      }
    </style>
  </defs>
  <g id="Layer_24" data-name="Layer 24">
    <path class="cls-1" d="M.04,16.94C.48,11.88,3.77,6.66,7.83,3.74,16.25-2.34,28.15-.84,34.52,7.36c6.72-8.54,19.57-9.88,27.87-2.77,3.5,3,6.32,7.84,6.75,12.49v4.59c-.21.88-.3,1.79-.5,2.68-1.06,4.87-3.65,9.86-6.41,13.98-6.97,10.39-17.16,18.26-27.71,24.76-6.44-4.04-12.72-8.46-18.22-13.73C9.45,42.81,2.02,32.97.35,23.46c-.11-.62-.08-1.34-.31-1.92.1-1.49-.13-3.12,0-4.59ZM34.46,17.48c-1.58-3.44-3.02-6.85-6.01-9.31-6.73-5.53-16.92-3.68-21.44,3.65C-.22,23.55,13.09,39.85,21.5,47.4c4.04,3.63,8.48,6.84,13.05,9.77,9.93-6.36,19.7-14.47,25.57-24.87,3.58-6.33,6.17-13.78,1.97-20.52-4.47-7.19-14.21-9.03-21.01-3.93-3.43,2.57-4.49,5.81-6.34,9.45-.07.14.07.25-.28.19Z"/>
  </g>
</svg>