<?xml version="1.0" encoding="UTF-8"?>
<svg id="Layer_2" data-name="Layer 2" xmlns="http://www.w3.org/2000/svg" viewBox="0 0 30.71 30.71">
  <defs>
    <style>
      .cls-1 {
        fill: #58595b;
      }
    </style>
  </defs>
  <g id="Page07">
    <g>
      <path class="cls-1" d="M9.78.1c3.67-.15,7.83-.13,11.49.06,6.3.33,8.97,3.09,9.28,9.36.18,3.53.21,7.5.09,11.04-.23,6.74-2.99,9.81-9.83,10.06-3.62.14-7.75.1-11.36-.09C2.88,30.2.3,27.13.09,20.64c-.11-3.38-.12-7.2,0-10.58C.32,3.4,3.07.38,9.78.1ZM11.35,2.84c-4.89.14-8.13.64-8.45,6.36-.22,3.89-.22,8.49,0,12.38.23,4.03,2.2,5.99,6.23,6.23,3.89.22,8.49.22,12.38,0s6.07-2.14,6.3-6.23.22-8.49,0-12.38c-.23-4.07-2.15-6.07-6.23-6.3-3.29-.19-6.93-.15-10.24-.06Z"/>
      <path class="cls-1" d="M14.4,7.54c7.1-.68,11.51,7.22,7.06,12.78-3.92,4.91-11.95,3.27-13.66-2.78-1.3-4.57,1.8-9.54,6.6-10ZM14.87,10.28c-6.61.66-5.7,10.62.84,10.16,6.76-.48,5.89-10.83-.84-10.16Z"/>
      <path class="cls-1" d="M23.25,5.35c2.7-.36,2.91,4.07-.09,3.65-1.94-.27-2-3.37.09-3.65Z"/>
    </g>
  </g>
</svg>