<?xml version="1.0" encoding="UTF-8"?>
<svg id="Layer_2" data-name="Layer 2" xmlns="http://www.w3.org/2000/svg" viewBox="0 0 46.93 71.34">
  <g id="Layer_12" data-name="Layer 12">
    <g>
      <path d="M45.51,29.34c.5.14,1.72,1.49,1.35,2.3l-10.87,36.19,10.53,1.51-1.01,2H0v-3s11-.01,11-.01L0,29.34h45.5ZM43.01,32.34H3.01l10.47,35.03c1.67,2.24,15.35.31,18.92,1.04l10.61-36.06Z"/>
      <path d="M16.3,5.62c-5.73,6.8,1.87,12.74,1.64,14.08-1.68,1.96-3.51,3.93-5.43,5.64-.86.77-1.97,2.92-3.01,1-1.62-2.99,4.32-5.82,4.49-6.55.35-1.49-4.95-5.04-1.71-12.68,4.96-11.7,22.89-8.12,22.83,4.74-.02,3.16-2.13,5.4-2.09,7.02.05,2.03,5.51,5.51,3,6.98-2.07,1.21-5.91-5.23-7.93-6,11.51-9.61-4.24-23.17-11.78-14.22Z"/>
      <path d="M14.31,39.64c9.71-10.87,28.35,4.32,17.73,16.23-9.83,11.03-28.44-4.25-17.73-16.23ZM29.69,41.65c-6.79-7.42-21.01,2.61-13.24,11.75,7.73,9.09,21.04-3.22,13.24-11.75Z"/>
    </g>
  </g>
</svg>