<?xml version="1.0" encoding="UTF-8"?>
<svg id="Layer_2" data-name="Layer 2" xmlns="http://www.w3.org/2000/svg" viewBox="0 0 31.12 28.96">
  <defs>
    <style>
      .cls-1 {
        fill: #58595b;
      }
    </style>
  </defs>
  <g id="Page07">
    <g>
      <path class="cls-1" d="M11.86,7.98c.92-.13,3.71-.13,4.64,0,.55.07,1.18.39,1.47.87.12.19.13.61.38.61s1.15-.56,1.47-.71c5.56-2.42,10.84.86,11.21,6.86.22,3.65-.08,7.54.09,11.21-.04.88-.55,1.68-1.42,1.92s-3.91.21-4.9.13c-1.16-.1-1.79-.83-1.88-1.97-.17-2.03.01-4.25,0-6.27,0-1.12.21-3.63-.26-4.5-.68-1.26-2.19-1.68-3.37-.81s-.94,2.46-.96,3.72c-.05,2.47.26,5.04.09,7.53-.1,1.43-.64,2.18-2.13,2.3-1.08.08-3.03.09-4.1,0-1.15-.11-1.83-.71-1.97-1.88-.02-4.71.04-9.43,0-14.15-.01-1.59-.63-4.54,1.65-4.87ZM11.4,27.59c.13.14.49.25.68.28,1,.11,3.34.1,4.35,0,.7-.07.9-.36.96-1.05.28-3.31-.25-6.99.03-10.34.59-3.51,5.91-3.41,6.45,0,.41,2.57.08,6.1.03,8.74,0,.55-.09,1.98.21,2.39.13.18.37.23.59.25,1.02.12,3.4.1,4.44,0,.43-.04.88-.24.95-.72.1-.64-.01-1.65,0-2.34.05-2.93.25-6.75-.08-9.62-.57-5-4.95-7.52-9.62-5.6-.54.22-2.46,1.55-2.71,1.53-.79-.07.01-1.87-1.05-2.12-.61-.15-3.85-.12-4.57-.04-.31.03-.74.17-.84.5l-.04,17.53c0,.18.08.47.2.6Z"/>
      <path class="cls-1" d="M1.82,7.98c.96-.13,3.68-.13,4.64,0,.81.11,1.45.6,1.71,1.38.07,5.68.22,11.44.2,17.13,0,1.66-.87,2.4-2.47,2.47-.48.02-.91-.09-1.34-.09-1.64-.01-4.01.53-4.44-1.58-.03-5.34-.05-10.7-.12-16.03-.02-1.45.03-3.04,1.82-3.28ZM7.08,27.67c.41-.41.29-2.22.28-2.86-.07-5.05-.1-10.12-.12-15.19-.1-.44-.52-.62-.93-.66-.69-.08-4.24-.08-4.75.11-.82.3-.48,1.45-.48,2.11.04,5.35-.05,10.7.02,16.05.16.65.7.68,1.28.73,1.02.08,2.93.1,3.93,0,.24-.02.6-.11.77-.28Z"/>
      <path class="cls-1" d="M3.41.03c2.75-.3,5.69,1.46,4.52,4.52-1.1,2.89-6.36,2.9-7.53.11C-.58,2.35,1.06.28,3.41.03ZM3.41,1.03c-1.6.22-2.8,1.59-2.09,3.21.96,2.2,5.56,2.01,5.86-.61.25-2.17-2.02-2.84-3.78-2.6Z"/>
    </g>
  </g>
</svg>