<?xml version="1.0" encoding="UTF-8"?>
<svg id="Layer_2" data-name="Layer 2" xmlns="http://www.w3.org/2000/svg" viewBox="0 0 79.83 121.77">
  <defs>
    <style>
      .cls-1 {
        fill: #231f20;
      }

      .cls-2 {
        fill: #ed1c24;
      }
    </style>
  </defs>
  <g id="Layer_14" data-name="Layer 14">
    <g>
      <path class="cls-2" d="M35.51.19c31.8-2.96,53.9,28.83,40.15,57.53l-33.61,63.05c-.99,1.34-3.25,1.34-4.24,0L4.31,57.96C-8.34,33.73,8.27,2.73,35.51.19ZM40.29,113.4l31.2-59.13c9.2-19.86-2.82-43.89-24.24-48.29C19.09.21-3.31,28.45,8.49,54.52l31,58.41.81.46Z"/>
      <path class="cls-1" d="M38.05,17.57c30.08-2.4,33.15,42.94,4.59,45.5-31.55,2.83-34.21-43.13-4.59-45.5ZM36.95,22.99c-21.07,2.85-18.33,36.3,3.88,35.01,23.74-1.38,21.08-38.39-3.88-35.01Z"/>
    </g>
  </g>
</svg>