<?xml version="1.0" encoding="UTF-8"?>
<svg id="Layer_2" data-name="Layer 2" xmlns="http://www.w3.org/2000/svg" viewBox="0 0 9.11 13.89">
  <defs>
    <style>
      .cls-1 {
        fill: #58595b;
      }
    </style>
  </defs>
  <g id="page01">
    <g>
      <path class="cls-1" d="M4.05.02c3.63-.34,6.15,3.29,4.58,6.56l-3.83,7.19c-.11.15-.37.15-.48,0L.49,6.61C-.95,3.85.94.31,4.05.02ZM4.6,12.94l3.56-6.75c1.05-2.27-.32-5.01-2.77-5.51C2.18.02-.38,3.25.97,6.22l3.54,6.66.09.05Z"/>
      <path class="cls-1" d="M4.34,2c3.43-.27,3.78,4.9.52,5.19-3.6.32-3.9-4.92-.52-5.19ZM4.21,2.62c-2.4.33-2.09,4.14.44,3.99,2.71-.16,2.4-4.38-.44-3.99Z"/>
    </g>
  </g>
</svg>