<?xml version="1.0" encoding="UTF-8"?>
<svg id="Layer_2" data-name="Layer 2" xmlns="http://www.w3.org/2000/svg" viewBox="0 0 26.3 19.65">
  <defs>
    <style>
      .cls-1 {
        fill: #58595b;
      }
    </style>
  </defs>
  <g id="Page07">
    <path class="cls-1" d="M2.3.02l21.61-.02c1.32.17,2.28,1.26,2.39,2.57v14.51c-.11,1.35-1.1,2.41-2.45,2.57H2.53c-1.12-.11-2.09-.93-2.39-2.01C-.13,12.65.09,7.59.02,2.58.14,1.3,1.02.24,2.3.02ZM2.67,1.07l-.6.2,9.29,10.1c1.17.92,2.76.8,3.85-.18L24.25,1.27c0-.13-.64-.23-.77-.22l-20.81.02ZM1.26,17.6l7.79-7.03L1.26,2.05l-.13.65v14.26s.13.65.13.65ZM25.05,17.6l.13-.52-.05-14.82-.1-.21-7.78,8.52,7.81,7.03ZM24.19,18.47l-7.71-7.06c-.24.18-.38.44-.6.65-1.42,1.32-3.61,1.45-5.14.24-.17-.13-.85-.91-.96-.89l-7.66,6.97.2.11,21.4.04.46-.07Z"/>
  </g>
</svg>