<?xml version="1.0" encoding="UTF-8"?>
<svg id="Layer_2" data-name="Layer 2" xmlns="http://www.w3.org/2000/svg" viewBox="0 0 70.01 77.25">
  <g id="Layer_13" data-name="Layer 13">
    <g>
      <path d="M60.71,33.43c.85-4.76,8.45-5.7,9.08,1.71.31,3.65.43,14.93-.57,18.02-1.2,3.73-13.58,12.53-11.48,15.4.15.21,2.11.33,2.11,1.56v7.12h-2.16v-6.48h-13.6l-.49.63-.16,5.85h-2.16v-6.69c0-.95,2.1-1.96,2.17-2.25.44-1.77-.22-5.43.04-7.64.76-6.55,9.84-11.89,13.78-16.88l3.44.22c.39-3.18-.53-7.57,0-10.58ZM55.53,68.61c-1.82-5.21,11.66-13.13,11.66-16.19v-19.43c0-1.37-3.89-1.37-3.89,0v16.4c-1.23.93-7.53,8.1-8.36,7.96-.46-.08-1.31-.97-.95-1.69.96-1.92,9.08-6.74,6.11-9.11-.69-.55-1.65-.56-2.41-.17-1.62,2.07-11.66,10.69-11.66,12.51v9.07c0,.13-.55.33-.43.65h9.93Z"/>
      <path d="M8.9,44.01l3.87-.22c3.22,4.2,12.65,10.39,13.36,15.58.31,2.27-.48,6.82.11,8.53.24.7,2.09,1.34,2.09,1.8v7.55h-2.16v-6.48h-13.81v6.48h-2.16v-7.55l2.19-1.33c1.01-4.14-10.66-10.96-11.83-15.8-.75-3.11-.64-14.33-.31-17.85.29-3.06,1.62-5.2,4.97-4.97,1.23.08,3.68,1.72,3.68,2.83v11.44ZM24.01,68.61v-9.28c0-.58-1.46-2.65-1.94-3.24-.92-1.16-9.57-9.78-10.27-10.04-1.62-.61-2.95,1-2.73,2.51.13.89,6.27,6.02,7.16,7.32l-1.5,1.5-7.99-7.98v-16.4c0-.48-1.71-1.42-2.35-1.09-.95.14-1.68,1.16-1.87,2.05-.5,2.27-.4,15.03.01,17.5.94,5.59,12.73,10.21,11.98,17.16h9.5Z"/>
      <path d="M25.1,1.7c2.22-.66,1.08,2.33,1.05,3.22-.05,1.86-.31,7.4.43,8.68,2.41,4.18,6.7,1.3,9.51,2.57.38.17,5.66,5.45,5.83,5.83.69,4.33-.14,8.85.21,13.17.13,1.55,2.2,5.17-1.71,2.55.27-.81.76-1.16.88-2.1.24-1.85.19-11.75-.35-13.08-.2-.49-4.44-4.88-4.86-5.07-1.75-.8-5.12.25-7.03-.31-.33-.1-3.58-3.2-3.78-3.56-.87-1.51-.33-6.56-.39-8.68-.02-.87-.94-2.88.2-3.22Z"/>
      <path d="M16.22,11.65c0,.74.04,1.28.43,1.94.3.51,6.15,6.16,6.61,6.34,3.09,1.25,9.41-.77,12,.95.44.29,3.67,3.66,3.77,4l.32,9.63c-2.85,1.38-1.54-1.49-1.51-2.8.04-1.51.25-5.21-.11-6.4-.1-.35-2.92-3.29-3.34-3.57-2.63-1.74-9.04.35-11.67-.85-1.17-.53-4.99-5.23-6.46-6.49-1.13-.97-2.64-.5-2.18-2.78l2.14.02Z"/>
      <path d="M55.52,11.63l.26,1.74c-1.42.4-6.33,4.85-6.64,5.9-.55,1.85.37,4.88-.18,6.73-.37,1.23-3.06,2.44-3.36,3.98-.36,1.89-.09,6.45-.03,8.64.02.88,1.17,3.87-1.05,3.22-1.14-.34-.22-2.35-.2-3.22.06-2.24-.49-8.01.39-9.54.57-.99,3.07-2.44,3.39-3.52.55-1.85-.37-4.88.18-6.73.27-.9,3.58-3.57,4.46-4.6s.8-2.95,2.78-2.61Z"/>
      <path d="M57.32,23.34l-.06,5.12c-8.91-1.23-8.77,5.51-8.22,12.31.05.63,1.68,4.19-.62,3.65-1.7-.4-.25-2.5-.2-3.21.15-2.58-.55-7.79.06-9.86.11-.37,3.01-3.37,3.37-3.53,1.23-.56,2.98-.08,4.31-.22-.11-2.18-.17-4.48,1.29-6.27,1.51-1.84,3.64,1.74.07,2.01Z"/>
      <path d="M31.78,47.02c1.92-.01,5.67-1.47,3.6,1.77l-6.19-.47,5.09-5.48c-.18-4.07.54-8.92.11-12.89-.1-.92-.62-1.29-.84-2.07.74-1.41,1.58-1.14,2.54-.03-.27.81-.76,1.16-.88,2.1-.51,3.93.44,8.91.02,12.97l-3.44,4.11Z"/>
      <path d="M45.97,24.52h-1.6c-.96-1.33.31-1.94.4-3.16.18-2.47-.44-5.97-.02-8.21.26-1.37,1.87-1.66,2.14-3.04.34-1.74-.63-4.68-.38-5.54.32-1.09,2.08-1.19,2.03.66-.03,1.06-.23,4.96-.43,5.66-.32,1.09-2.22,1.7-2.49,3.12s-.15,5.71-.04,7.35c.09,1.21,1.35,1.83.4,3.16Z"/>
      <path d="M16.99,24.69c.2.59.3,1.14.73,1.63,2.1,2.42,6,6.35,8.43,8.42.61.52,3.54,1.35,1.76,2.58-1.76,1.21-1.9-.92-2.81-1.97-2.02-2.33-5.64-6.01-7.98-8-1.12-.95-2.67-.53-2.17-2.77l2.03.1Z"/>
      <path d="M12.79,16.38c2.28-.47,1.82,1.05,2.78,2.18.65.76,5.25,5.36,5.72,5.5,2.02.6,8.2.22,10.28-.66,1.37.45,1.23,2.16-.07,2.41-.46.09-1.55-.73-2.51-.81-2.25-.18-6.26.48-8.13-.07-.97-.29-4.68-4.72-5.89-5.76-1.13-.97-2.65-.51-2.18-2.78Z"/>
      <path d="M42.42,7.59c-1.38,1.54-3.84,2.82-4.9,4.91-2.24.11-4.37-.51-6.33.81-1.33-.44-1.4-2.21,0-2.48.82-.16,3.48,1.83,6,.39.31-.18,4.57-4.47,4.72-4.78.7-1.52-.81-4.36.45-4.74,2.57-.77,1.08,4.75.06,5.89Z"/>
      <path d="M30.34,43.85c-.21.28-.83.41-1.14.78-.56.65-.57,1.88-1.52,2.39-3.53-1.95,2.51-3.3,3.16-5.48.34-1.15.28-8.76.11-10.3-.06-.6-1.73-3.58.56-3.18,1.97.34.35,2.25.25,3.18-.47,4.36,1.34,8.9-1.42,12.61Z"/>
      <path d="M35.51,0c.59-.1,3.68,4.5,4.45,5.31-.04.24-3.13,3.37-3.43,3.5-1.13.51-2.46.09-3.65.24-.59.07-2.44,1.72-2.79-.29-.4-2.28,2.67-.69,3.23-.6,2.87.43,3.48-1.58,5.36-3.22l-4.12-3.23c-.52-.6.58-1.64.95-1.71Z"/>
      <path d="M38.69,40.98c.11,1.48-.16,3.1-.03,4.55.08.92.76,1.42.79,2.06.06,1.68-2.44,1.68-2.38,0,.02-.66.72-1.15.79-2.06.16-2.17-.17-4.52-.02-6.71,1.97,1.34,3.36,3.47,5.16,4.98.76.64,3.07,1.04,2.41,2.36-.21.41-1,1.13-1.54.68-1.28-2.33-3.05-4.25-5.16-5.86Z"/>
      <path d="M23.43,37.68c1.31,1.38,2.48,3.13,4.03,4.38-1.78,1.2-3.59,6.58-4.33,1.74l2.58-1.8-.15-.58c-1.75-1.47-3.26-3.54-4.97-4.99-.61-.51-1.98-.78-2.16-1.29-.31-.91.56-1.79,1.47-1.47.53.18.76,1.55,1.29,2.16.71.8,1.67,1.25,2.24,1.86Z"/>
      <path d="M57.67,30.64c.26.36-.03,1.99-.65,2.14-1.02.08-1.54-.89-2.57-.91-2.36-.04-2.41,3.88-1.89,5.39.33.94,2.11.49,2.11,1.78,0,1-1.01,1.38-1.75.88-2.09-1.97-2.84-7.74.33-8.77.61-.2,4.14-.91,4.42-.52Z"/>
      <path d="M25.61,16.06c1.17.94-.54,2.66-1.63,1.86-.14-1.82-2.73-3.05-3.21-4.13s.06-2.47-.69-3.62c-.64-.99-2.37-1.06-2.96-2.25.43-1.21,1.04-2.04,2.07-.75.27.34,1.93,2.59,2,2.75,1.2,2.71-.33,2.81,3.03,5.62.4.33,1.08.29,1.38.53Z"/>
      <path d="M11.28,21.13c2.51-.75.69,4.16,1.17,5.74.51,1.71,3.7,2.83,4.04,3.3.78,1.08-.7,2.76-1.86,1-.67-1.01-3.39-4.03-3.47-4.3-.16-.54-.41-3.59-.43-4.36-.01-.53-.07-1.19.56-1.37Z"/>
      <path d="M56.63,16.4c.91-.31,1.79.56,1.47,1.47-.11.31-4.26,2.62-4.96,4.14-.56,1.22.47,2.18.19,3.16-.33,1.15-2.17,1.1-2.1-.74.11-2.96,2.46-3.93,4.1-5.87.51-.61.78-1.98,1.29-2.16Z"/>
      <path d="M14.79,34.54c.48-.08,3.37,4.04,4.46,4.96.37.31,4.12,2.08,1.52,2.78-1.57.43-1.84-1.78-2.56-2.61-1.31-1.51-2.67-2.41-4.37-3.42-.52-.6.58-1.64.95-1.71Z"/>
      <path d="M41.34,12.98c-.67,2.93.43,2.23,1.54,3.07,1.18.89-.66,3.2-1.93,1.3-1.72-2.55-1.03-4.89.98-7.02,1.44-.29,1.68,2.95-.59,2.65Z"/>
      <path d="M28.33,27.6c-.71,1.2.87,3.74.82,4.04-.22,1.33-2.1,1.36-2.5,0-.09-.55,1.72-2.03.41-2.98-.89-.65-3.43,1.71-3.9-.42-.43-1.95,4.25-.24,5.18-.64Z"/>
      <path d="M50.31,14.61c-5.47-.6.5-2.4,1.13-3.86l-.63-2.3c.82-1.52,2.05-1.4,2.47.28l-2.98,5.89Z"/>
      <path d="M30.81.52c-.11,2.06,2.52,2.29,2.93,2.89.86,1.25-.13,2.39-1.54,2-.38-2.93-3.93-2.3-3.43-4.99l2.03.1Z"/>
    </g>
  </g>
</svg>