<?xml version="1.0" encoding="UTF-8"?>
<svg id="Layer_2" data-name="Layer 2" xmlns="http://www.w3.org/2000/svg" viewBox="0 0 66.38 67.75">
  <defs>
    <style>
      .cls-1 {
        fill: #662d91;
      }
    </style>
  </defs>
  <g id="Layer_7" data-name="Layer 7">
    <g>
      <path class="cls-1" d="M56.1,0c1.71,1.75,3.32,3.65,4.74,5.65,4.42,6.22,9,15.63,1.75,21.67,2.1,1.48,3.45,4.45,3.45,7.01,0,6.09-2.21,12.51-5.41,17.62-.55,4.14-.43,8.56-.96,12.67-.25,1.92-1.4,2.64-3.17,3.11-.55-.05-1.19.07-1.72,0-.69-.09-1.95-.69-2.43-1.21-1.19-1.26-.63-3.55-1.01-5.14-14.83,9.98-35.15,6.14-45.36-8.42C-2.88,40.34-1.78,23.06,8.52,11.64c.75-.83,3.11-3.24,3.99-3.68,1.11-.55,2.06.47,1.43,1.43-.2.31-1.12.87-1.45,1.19C4.17,18.5.28,28.98,2.7,40.48c4.3,20.42,27.65,30.83,45.81,20.26.5-.29,2.2-1.27,2.5-1.61.09-.1.19-.18.19-.34l-.79-10.96c-5.41-.73-7.05-7.91-2.16-10.64.32-.18,1.28-.44,1.35-.64l-.38-6.79c-5.76,1.55-15.19.79-17.84-5.51-2.17-5.15,1.63-10.01,5.71-12.78,2-1.35,4.42-2.1,3.47-5.26-.77-2.59-3.51-2.79-5.82-2.91-5.35-.28-10.35.42-15.2,2.67-.77.36-3.1,1.87-3.6,1.96-1.33.25-1.72-1.11-.71-1.9C20.08,2.21,29.38.83,35.39,1.32c3.14.26,6.19.9,7.12,4.39,1.5,5.61-3.71,6.4-6.71,9.38-3.37,3.35-4.53,8.01-.2,11.15,2.88,2.08,7.04,2.46,10.49,2.05.37-.04,2.97-.47,2.99-.71-.23-.49-.84-.64-1.25-1-3.21-2.74-3.91-7.02-2.62-10.95,1.78-5.43,8.22-8.04,9.42-13.73.14-.68-.15-1.41.68-1.9h.79ZM56.36,3.31c-.72,2.21-2.14,4.09-3.64,5.82-2.2,2.54-4.8,4.19-5.72,7.64-.88,3.28-.16,7.23,3.1,8.86l11.06.13c5.89-4.43,2.41-12.17-.78-17.16-1.19-1.87-2.57-3.63-4.02-5.3ZM60.46,27.78h-9.4l.86,10.19h7.74l.79-10.19ZM61.12,46.96c.98-2.49,1.88-4.99,2.34-7.65.53-3.07,1.08-6.87-1.08-9.42l-1.26,17.06ZM49.74,38.76c-3.44,1.25-3.05,6.22.53,6.88l-.53-6.88ZM59.54,39.95h-7.67l1.87,25.05c1.17,1.13,4.1,1.06,3.94-1.06l1.87-23.99Z"/>
      <path class="cls-1" d="M12.27,29.27c8.86-.82,9.84,12.58,1.28,13.32-8.86.77-9.99-12.51-1.28-13.32ZM12.89,31.29c-6.26,0-5.99,9.35,0,9.33,6-.02,6.19-9.33,0-9.33Z"/>
      <path class="cls-1" d="M22.55,43.07c8.84.24,8.4,14.25-1.19,13.28-7.87-.79-7.58-13.52,1.19-13.28ZM21.53,45.14c-5.74.79-4.79,9.92,1.41,9.21,5.83-.67,5.06-10.1-1.41-9.21Z"/>
      <path class="cls-1" d="M16.5,13.39c5.86-.74,9.89,5.29,6.68,10.25-2.98,4.6-10.06,3.71-11.87-1.42-1.33-3.77,1.14-8.31,5.19-8.83ZM16.9,15.38c-5.82.8-4.88,9.97,1.41,9.21,5.79-.7,4.94-10.08-1.41-9.21Z"/>
      <path class="cls-1" d="M37.68,47c4.23-.35,7.55,3.27,7.17,7.43-.07.73-.35,1.89-1.33,1.73-1.37-.23-.62-1.78-.65-2.66-.17-4.57-6.34-6.14-8.63-2.27s1.22,8.13,5.39,6.84c.83-.26,2.72-2.01,3.18-.54.38,1.21-1.11,1.95-2.06,2.32-3.86,1.51-8.13-.68-9.04-4.71-.89-3.95,1.94-7.81,5.97-8.14Z"/>
    </g>
  </g>
</svg>