<?xml version="1.0" encoding="UTF-8"?>
<svg id="Layer_2" data-name="Layer 2" xmlns="http://www.w3.org/2000/svg" viewBox="0 0 114.14 76.81">
  <defs>
    <style>
      .cls-1 {
        fill: #262262;
      }
    </style>
  </defs>
  <g id="Layer_18" data-name="Layer 18">
    <g>
      <path class="cls-1" d="M82.88,72.06c-16.29,6.34-35.32,6.33-51.62,0l-.07-.38c0-11-1.67-22.19,9.42-28.39,5.45-3.05,19.2-2.79,25.63-2.29,5.83.46,11.47,4.19,14.32,9.22,3.71,6.55,2.04,14.61,2.33,21.83Z"/>
      <path class="cls-1" d="M87.29,65.72v-10.02c0-1.14-1.57-5.35-2.17-6.55-2.63-5.32-8.22-10.37-14.11-11.61-.35-.41,1.43-2.37,1.79-3,.6-1.03,1.13-2.17,1.47-3.32,1.72-.72,3.72-1.13,5.58-1.25,4.8-.31,12.09-.33,16.88,0,8.93.62,16.54,7.71,17.27,16.72.13,1.62.24,13.77-.14,14.38-8.3,3.55-17.56,4.85-26.59,4.64Z"/>
      <path class="cls-1" d="M26.85,65.72c-9.04.2-18.28-1.11-26.6-4.64-.12-10.5-2.09-20.2,7.16-27.45,6-4.71,19.36-4.16,26.87-3.67,1.86.12,3.87.53,5.58,1.25.7,2.21,1.88,4.27,3.55,5.88-3.89,1.5-7.72,3.43-10.6,6.53-2.14,2.31-5.95,9-5.95,12.06v10.02Z"/>
      <path class="cls-1" d="M24.17.13c19.45-2.2,21.06,27.42,1.96,27.83C8.88,28.33,6.98,2.07,24.17.13Z"/>
      <path class="cls-1" d="M86.36.13c17.96-2.17,21.62,24.06,4.79,27.45-19.08,3.85-23.19-25.23-4.79-27.45Z"/>
      <path class="cls-1" d="M54.68,11.16c11.57-1.56,20.07,9.74,14.71,20.23-5.53,10.82-21.94,9.34-25.6-2.23-2.46-7.75,2.61-16.88,10.89-18.01Z"/>
    </g>
  </g>
</svg>