<?xml version="1.0" encoding="UTF-8"?>
<svg id="Layer_2" data-name="Layer 2" xmlns="http://www.w3.org/2000/svg" viewBox="0 0 113.11 113.04">
  <defs>
    <style>
      .cls-1 {
        fill: #ed1c24;
      }
    </style>
  </defs>
  <g id="Layer_14" data-name="Layer 14">
    <g>
      <path d="M92.75,17.54c.28-.16,1.89-3.9,2.44-4.65,3.23-4.34,6.63-1.7,7.45,2.81,1.25,6.9,1.16,14.16,2.64,21.05.09,2.91-1.07,4.48-4.02,4.78l-24.27-3.19c-6.15-3.4-.49-7.83,3.92-9.1l.27-1.09c-17.2-19.36-48.81-16.34-61.3,6.64-16.14,29.69,11.72,63.67,43.68,54,1.26-9.62,5.47-18.18,14.61-22.37,20.97-9.62,42.27,12.13,32.46,32.89-6.91,14.61-26.01,18.17-38.26,7.74-1.04-.88-3.06-3.69-3.97-3.77-27.03,8.37-56.94-6.87-65.63-33.72C-14.08,17.36,49.33-22.53,88.95,14.36c.81.75,2.43,3.99,3.8,3.19ZM101.41,37.38l-3.23-21.92c-2.11,1.94-3.15,10.33-7.13,7.12C64.28-11.56,9,4.16,4.21,47.49c-3.47,31.39,23.84,58.17,55.21,53.92,2.37-.32,4.84-1.05,7.15-1.68l-2.19-6.84C30.84,101.83.92,69.05,14.76,36.54,26.19,9.71,61.98,2.92,82.48,23.84c1.19,1.22,4.29,4.77,3.8,6.36l-7.67,4.6,22.79,2.58ZM86.69,68.05c-27.14,2.52-23.38,43.83,4.17,41.16,26.42-2.56,22.85-43.66-4.17-41.16Z"/>
      <path class="cls-1" d="M64.29,23.69c4.65-1.41,1.75,7.66-1.21,7.02-2.74-.59-.16-6.61,1.21-7.02Z"/>
      <path class="cls-1" d="M27.32,61.14c.84-.13,1.8-.36,2.5.3,2.13,3.04-5.04,5.51-6.27,4.12-1.77-2.39,1.75-4.11,3.76-4.43Z"/>
      <path class="cls-1" d="M31.58,29.28c1.51-.28,5.24,3.72,4.82,5.21-1.08,3.91-9.45-3.32-4.82-5.21Z"/>
      <path class="cls-1" d="M30.21,71.97c.96-1.28,4.49-4.39,5.32-1.59.6,2.01-3.41,5.82-5.07,5.08-1.98-.88-1.21-2.22-.25-3.49Z"/>
      <path class="cls-1" d="M25.13,38.79c1.68-.16,6.59,2.16,5.1,4.63-.99,1.65-7.86-.89-6.62-3.59.18-.53.98-.99,1.51-1.04Z"/>
      <path class="cls-1" d="M40.85,75.32l2.52.1c1.75,1.2-1.73,9.5-4.3,6-1.03-1.4,1.14-4.62,1.78-6.09Z"/>
      <path class="cls-1" d="M40.61,23.24c3.15-1.06,4.89,5.76,3.62,6.64-3.25,2.36-5.61-5.98-3.62-6.64Z"/>
      <path class="cls-1" d="M51.09,27.92v-6.45c4.02-1.66,3.79,1.35,3.47,4.54-.25,2.52-1.11,2.69-3.47,1.91Z"/>
      <path class="cls-1" d="M54.43,84.17c-.51.87-2.87,1.01-3.29-.18-.54-1.55-.58-7.98,2.53-6.4,1.12.56,1.19,5.86.76,6.59Z"/>
      <path class="cls-1" d="M21.48,54.52c-.58-.67-.63-3.19.22-3.4,9.31-1.15,8.66,4.86-.22,3.4Z"/>
      <path class="cls-1" d="M75.67,87.34c.1-.15,1.19-.47,1.48-.47,2.91-.03,6.25,6.43,8.05,5.95,1.76-.46,10.73-11.48,13.23-13.05,1.22-1.13,2.58-.34,3.37.92.22.89-1.1,2.26-1.67,2.94-2.62,3.12-10.24,11-13.33,13.33-1.15.86-1.78,1.54-3.26.66-.46-.27-7.27-7.06-7.53-7.53-.38-.66-.73-2.14-.34-2.76Z"/>
    </g>
  </g>
</svg>