<?xml version="1.0" encoding="UTF-8"?>
<svg id="Layer_2" data-name="Layer 2" xmlns="http://www.w3.org/2000/svg" viewBox="0 0 93.79 114.46">
  <defs>
    <style>
      .cls-1 {
        fill: #ed1c24;
      }
    </style>
  </defs>
  <g id="Layer_5" data-name="Layer 5">
    <g>
      <path class="cls-1" d="M14.98,7.6l.63-.79c.29-1.39.13-6.64,1.72-6.81h59.52s1.97,7.6,1.97,7.6h14.19c1.12.91.75,2.64.65,3.96-.92,11.67-8.68,24.82-18.23,31.42-2.96,2.04-7.64,3.26-9.73,4.8-.84.61-2.24,2.82-3.41,3.81-2.63,2.23-5.43,4.46-8.68,5.74l-.08,21.68h11.35l.47,9.93,3.48.06.71.71c.66,2.91-1.15,12.29,1.3,13.84.76.48,1.82.38,2.53.78,1.76.97.97,8.11.49,10.15H19.94c-.47-2.04-1.27-9.18.49-10.15.72-.39,1.77-.3,2.53-.78,2.45-1.55.64-10.92,1.3-13.84l.71-.71,3.96-.06.47-9.93h10.88v-21.75c-5.3-1.05-8.94-7.16-12.81-9.65-2.61-1.68-6.05-2.52-9.09-4.62C8.67,36.29,1.21,23.38.14,11.56c-.12-1.31-.46-3.07.65-3.96h14.19ZM50.21,55.36c18.87-8.37,26.78-31.33,24.59-50.83l-.71-1.18H19.71l-.71,1.18c-1.88,16.88,3.68,36.25,17.55,46.76,2.28,1.73,4.84,2.95,7.04,4.78v22.93h6.62v-23.64ZM15.21,10.91H3.39c1.79,12.64,8.5,25.26,20.09,31.21l-4.24-9c-2.68-7.1-3.79-14.65-4.03-22.22ZM90.4,10.91h-11.82c-.22,8.62-1.72,16.98-5.12,24.91-.93,2.16-2.36,4.11-3.15,6.31,11.61-6,18.32-18.52,20.09-31.21ZM62.03,82.31h-29.79l.44,6.41,28.57.14c1.49-.49.5-5.16.78-6.55ZM66.28,92.24H27.51v9.69c0,.36-1.64,3.52-2.03,3.88-1.94,1.77-3.44.87-2.7,5.35h48.23c1.84-4.52-4.73-5.4-4.73-8.75v-10.17Z"/>
      <path class="cls-1" d="M30.23,7.72c1.1,1.14.48,9.24.59,11.46.16,3.02,1.28,6.32.87,9.39l-1.12.81c-.59.05-1-.07-1.42-.5-.77-.77-1.57-8.07-1.66-9.68-.12-2.03-.33-9.28.12-10.8.36-1.22,1.76-1.58,2.62-.69Z"/>
    </g>
  </g>
</svg>