<?xml version="1.0" encoding="UTF-8"?>
<svg id="Layer_2" data-name="Layer 2" xmlns="http://www.w3.org/2000/svg" viewBox="0 0 89.18 88.93">
  <defs>
    <style>
      .cls-1 {
        fill: #be1e2d;
      }
    </style>
  </defs>
  <g id="Layer_1-2" data-name="Layer 1">
    <g>
      <path class="cls-1" d="M76.7,41.39h6.1c2.79,0,6.23,3.58,6.26,6.4-.34,5.94.43,12.33,0,18.22-.21,2.86-3.3,6.4-6.26,6.4h-6.1v6.4c0,4.65-5.56,10.09-10.26,10.12l-44.26-.05c-4.46-.31-9.69-5.6-9.69-10.07v-6.4h-6.1c-2.58,0-5.81-3.17-6.18-5.7.21-6.15-.52-12.83-.08-18.92.21-2.86,3.3-6.4,6.26-6.4h6.1v-6.4c0-4.18,5.41-10.11,9.65-10.11h19.37v-6.71c-5.41-2.16-7.97-8.41-4.97-13.61,3.73-6.46,13.61-5.96,16.57.93,2.23,5.18-.37,10.61-5.43,12.68v6.48l.23.23h19.14c4.23,0,9.65,5.93,9.65,10.11v6.4ZM43.78,6.24c-2.95.54-3.11,5.54.15,6.1,4.95.84,5.02-7.05-.15-6.1ZM22.8,31.09c-2.48.6-4.08,2.74-4.13,5.28v41.22c.1,2.63,1.93,4.8,4.55,5.17h42.76c2.68-.38,4.52-2.64,4.55-5.32v-41.06c-.05-2.68-1.85-4.97-4.55-5.32l-43.18.04ZM12.5,47.57h-5.48c-.19,0-.84.68-.69,1,.28,5.34-.38,11.07,0,16.37.02.3-.01.62.15.89.02.04.51.42.55.42h5.48v-18.67ZM82.18,47.57h-5.48v18.67h5.48c.19,0,.84-.68.69-1-.28-5.34.38-11.07,0-16.37-.03-.49-.1-1.17-.7-1.31Z"/>
      <path class="cls-1" d="M35.92,62.11c1.48-.18,2.06.62,3.28,1.12,3.09,1.25,7.7,1.23,10.8,0,.59-.24,1.19-.73,1.7-.92,2.62-.98,5.13,1.54,3.99,4.15-1.22,2.81-8.28,3.95-11.02,3.96-2.66,0-9.19-1.08-10.85-3.35-1.4-1.91-.23-4.67,2.1-4.95Z"/>
      <path class="cls-1" d="M31.59,41.43c1.27-.21,2.82.45,3.36,1.66s.55,5.43.08,6.72c-1.03,2.84-5.53,2.36-5.87-.63-.12-1.07-.14-4.65.07-5.64s1.39-1.95,2.36-2.11Z"/>
      <path class="cls-1" d="M56.44,41.43c1.27-.21,2.82.45,3.36,1.66s.55,5.43.08,6.72c-1.03,2.84-5.53,2.36-5.87-.63-.12-1.07-.14-4.65.07-5.64s1.39-1.95,2.36-2.11Z"/>
    </g>
  </g>
</svg>