<?xml version="1.0" encoding="UTF-8"?>
<svg id="Layer_2" data-name="Layer 2" xmlns="http://www.w3.org/2000/svg" viewBox="0 0 71.11 71.09">
  <defs>
    <style>
      .cls-1 {
        fill: #1c75bc;
      }
    </style>
  </defs>
  <g id="Layer_21" data-name="Layer 21">
    <g>
      <path class="cls-1" d="M62.13,28.42l8.8,2.52c.22,3.07.26,6.12,0,9.2l-8.8,2.52c-.64,2.33-1.53,4.58-2.61,6.75-.1.19,0,.33.06.51.58,1.75,2.45,4.32,3.36,6.1.15.29.84,1.52.76,1.71l-6.07,6-7.93-4.27-7.42,2.89c-.18.11-.21.29-.29.46-.98,2.13-1.16,5.78-2.15,7.85-.08.17-.1.37-.33.43l-8.19-.06-2.54-8.59-7.39-2.98-7.67,4.16-.5.05-5.99-6.05,4.25-7.96-2.64-7-8.83-2.62.03-9.1,8.8-2.52c.62-2.39,1.63-4.64,2.64-6.88l-4.21-8.18,6.07-6,7.93,4.27c2.46-1.09,4.92-2.26,7.58-2.82L31.13.43l.33-.43,8.19.06,2.54,8.59,7.39,2.98,8.06-4.27,6.11,6.1-4.25,7.96,2.64,7ZM34.13,17.39c-13.19,1.02-21.02,15.43-14.52,27.05,6.88,12.33,24.88,12.33,31.77,0,7.06-12.64-2.88-28.16-17.24-27.05Z"/>
      <path class="cls-1" d="M34.88,36.26c5.99-.3,11.64,3.9,12.96,9.76-6.73,6.3-18.12,6.35-24.75-.1,1.38-5.37,6.22-9.39,11.79-9.67Z"/>
      <path class="cls-1" d="M40.7,32.36c-6.08,6.49-16.41-2.17-10.87-9.27,6.08-7.8,17.59,2.1,10.87,9.27Z"/>
    </g>
  </g>
</svg>