<?xml version="1.0" encoding="UTF-8"?>
<svg id="Layer_2" data-name="Layer 2" xmlns="http://www.w3.org/2000/svg" viewBox="0 0 10.63 10.22">
  <defs>
    <style>
      .cls-1 {
        fill: #2bb673;
      }
    </style>
  </defs>
  <g id="Layer_18" data-name="Layer 18">
    <g>
      <path class="cls-1" d="M2.34,2.2c-1.9,1.82-1.56,4.93.67,6.3,2.99,1.84,6.74-.83,6-4.25-.07-.31-.29-.7-.18-.99.15-.41.71-.5.97-.14.2.28.38,1.21.4,1.57.28,4.39-4.63,7.14-8.17,4.48C-1.07,6.86-.52,2.03,3,.45c1.07-.48,2.82-.65,3.9-.12.55.27.38,1.04-.18,1.07-.17,0-.55-.16-.75-.2-1.29-.27-2.67.1-3.62,1.01Z"/>
      <path class="cls-1" d="M3.09,4.91c-.13-.13-.31-.27-.45-.39-.08-.07-.42-.26-.45-.3-.19-.26.24-.34.41-.36,1.08-.09,1.76.68,2.37,1.44.97-1.91,2.51-3.51,4.37-4.57.16-.09,1.11-.6,1.22-.58.18.03.02.19-.04.26-.25.24-.59.47-.86.71-2,1.79-3.49,4.08-4.4,6.6-.06.12-.25.14-.35.05-.52-.99-1-2.05-1.81-2.85Z"/>
    </g>
  </g>
</svg>