<?xml version="1.0" encoding="UTF-8"?>
<svg id="Layer_2" data-name="Layer 2" xmlns="http://www.w3.org/2000/svg" viewBox="0 0 16.88 16.89">
  <defs>
    <style>
      .cls-1 {
        fill: #39b54a;
      }
    </style>
  </defs>
  <g id="Layer_19" data-name="Layer 19">
    <path class="cls-1" d="M14.48,2.55c4.26,4.35,2.6,11.66-3.06,13.79C5.33,18.64-.95,13.44.12,7.03,1.25.26,9.65-2.39,14.48,2.55ZM7.11,10.23c-.07.06-.14.11-.2.19l-1.75-1.75c-.74-.64-1.73.28-1.11,1.06l2.36,2.36c.29.24.69.25.99.01l5.47-5.47c.45-.58-.01-1.36-.74-1.25-.3.05-.84.66-1.08.89-1.32,1.3-2.58,2.67-3.93,3.94Z"/>
  </g>
</svg>