<?xml version="1.0" encoding="UTF-8"?>
<svg id="Layer_2" data-name="Layer 2" xmlns="http://www.w3.org/2000/svg" viewBox="0 0 33.14 27.46">
  <defs>
    <style>
      .cls-1 {
        fill: #58595b;
      }
    </style>
  </defs>
  <g id="Page07">
    <path class="cls-1" d="M15.58,5.66c.73-6.43,8.05-6.86,12.49-3.9.7-.14,3.59-1.64,4.05-1.49.89.28-.95,2.77-1.32,3.13.56.1,1.75-.46,2.18-.27.29.13.15.43-.02.62l-3.25,3.01c.4,4.1-.9,7.95-3.04,11.38-4.86,7.81-13.69,11.32-22.56,8.17-.87-.31-3.36-1.38-3.92-2-.12-.14-.2-.2-.18-.4.02-.12.07-.23.17-.31.3-.23,2.24-.07,2.8-.11,2.14-.15,4.28-.87,6.1-1.98l-2.59-1.07c-.72-.45-1.38-.9-1.94-1.55-.33-.39-1.85-2.57-1.09-2.83.3-.05.61,0,.92-.02.13,0,.32.07.29-.12-2.26-1.16-3.97-3.9-3.49-6.46l.28-.15,1.71.68c-.35-.44-.77-.83-1.07-1.31-1.15-1.87-1.17-4.03-.59-6.09.67-2.4.82-1.53,2-.32,1.7,1.76,3.63,3.41,5.83,4.51,1.9.95,4.14,1.61,6.26,1.35.06-.8-.09-1.72,0-2.5ZM6.8,16.87c-.6.17-1.93-.12-2.61,0,1,2.39,3.54,3.52,5.96,3.94l.16.32c0,.44-.91,1.13-1.26,1.37-2.01,1.39-4.8,1.8-7.19,1.93l1.4.75c12.91,5.66,26.36-5.12,25.47-18.57.05-.24,2.03-1.9,2.38-2.25.07-.06.23,0,.15-.27l-2.14.44-.39-.5c.82-.86,1.83-1.53,2.41-2.61l-3.19,1.17c-1.02-.45-1.82-1.04-2.94-1.37-4.5-1.31-8.32.23-8.62,5.25-.08,1.4.76,2.34-.99,2.49-4.4.4-9.34-2.82-12.26-5.86-.13-.13-.62-.93-.81-.76-.65,2.1-.71,4.15.53,6.03.3.46,1.91,1.87,1.91,2.04,0,.91-2.41.39-2.91.17-.03,2.03,1.46,3.84,3.17,4.78.46.25,2.13.69,2.03,1.18-.01.07-.22.29-.27.31Z"/>
  </g>
</svg>