<?xml version="1.0" encoding="UTF-8"?>
<svg id="Layer_2" data-name="Layer 2" xmlns="http://www.w3.org/2000/svg" viewBox="0 0 60.17 81.36">
  <defs>
    <style>
      .cls-1 {
        fill: #6d6e71;
      }
    </style>
  </defs>
  <g id="page02">
    <g>
      <path class="cls-1" d="M39.17,7.94c2.34-8.9,14.17-10.88,19.28-3.07,3.2,4.89,1.79,11.1-2.77,14.53-.41.31-1.34.61-1.43,1.06v57.65c-.13,1.56-1.09,2.65-2.59,3.04-16.29.29-32.66.24-48.95.02-1.61-.4-2.64-1.81-2.7-3.46V11.68c.18-2.53,1.64-3.69,4.13-3.73h35.04ZM45.6,10.05c-.51.36-1.51.63-1.96.99-.14.11-.17.19-.12.36l2.68,5.07c.54.72,1.25.88,1.95.26l8.43-10.67-1.93-1.5-7.08,9.17-1.97-3.67ZM38.79,9.92H3.22c-.5,0-1.39,1.05-1.25,1.63v66.17c-.02.92.76,1.59,1.64,1.64h47.04c.46.1,1.63-.55,1.63-.99V21.06c-5.48,1.33-11.22-1.62-12.97-7-.13-.41-.52-1.76-.52-2.1v-2.03Z"/>
      <path class="cls-1" d="M26.18,15.85c14.4-.96,23.87,15.08,16.2,27.33-6.77,10.82-22.46,11.16-29.77.71-8.02-11.45-.24-27.12,13.57-28.04ZM16.33,22.18c-8.27,7.91-5.83,21.69,4.68,26.15,12.61,5.35,25.66-6.74,21.32-19.74-3.65-10.93-17.62-14.42-26-6.41Z"/>
      <rect class="cls-1" x="9.18" y="62.72" width="36.16" height="2.23"/>
      <rect class="cls-1" x="9.18" y="69.4" width="36.16" height="2.23"/>
      <rect class="cls-1" x="9.18" y="56.03" width="36.16" height="2.03"/>
      <path class="cls-1" d="M26.84,33.67c4.12-.16,8.26,2.3,9.96,6.07.29.65.94,2.49.88,3.13-.07.74-3.32,2.94-4.08,3.32-5.11,2.56-11.56,1.72-15.77-2.14-.82-.75-1.06-.8-.88-1.93.78-4.66,5.23-8.27,9.89-8.45Z"/>
      <path class="cls-1" d="M26.84,21.36c7.22-.59,7.7,10.51.62,10.71-6.92.2-7.48-10.15-.62-10.71Z"/>
    </g>
  </g>
</svg>