<?xml version="1.0" encoding="UTF-8"?>
<svg id="Layer_2" data-name="Layer 2" xmlns="http://www.w3.org/2000/svg" viewBox="0 0 76.86 77.08">
  <defs>
    <style>
      .cls-1 {
        fill: #00aeef;
      }
    </style>
  </defs>
  <g id="Layer_18" data-name="Layer 18">
    <g>
      <path class="cls-1" d="M35.26.09c24.3-2.11,29.57,34.21,5.45,38.96C13.88,44.33,7.99,2.45,35.26.09Z"/>
      <path class="cls-1" d="M4.99,73.38c-6.69-1.11-5.49-12.81-3.12-17.19,6.31-11.66,28.23-14.45,40.15-13.64.24.2-2.51,3.53-2.82,4.05-4.18,6.94-4.24,15.61-.25,22.65l2.74,4.13H4.99Z"/>
      <path class="cls-1" d="M55.35,39.62c27.12-3.4,28.91,36.61,3.59,37.45-23.79.79-25.79-34.67-3.59-37.45ZM65.37,51.03c-2,.11-7.09,6.88-9.1,8.2-1.98-.85-4.25-3.82-6.51-2.41-1.41.88-1.59,2.63-.66,3.95.35.5,5.72,4.07,6.41,4.31.88.3,1.55.44,2.38-.12l10.01-10.1c.93-1.66-.75-3.93-2.54-3.84Z"/>
    </g>
  </g>
</svg>