<?xml version="1.0" encoding="UTF-8"?>
<svg id="Layer_2" data-name="Layer 2" xmlns="http://www.w3.org/2000/svg" viewBox="0 0 51.26 78.43">
  <defs>
    <style>
      .cls-1 {
        fill: #27aae1;
      }
    </style>
  </defs>
  <g id="Layer_13" data-name="Layer 13">
    <g>
      <path class="cls-1" d="M19.05.02c2.12-.28,4.38,2.09,6.52,2.12,2.33.03,4.77-2.7,7.05-2.02,1.93.58,2.87,3.89,4.57,5.02,1.94,1.29,5.06.26,6.89,1.56,1.91,1.35.76,5.39,2,7.33,1.04,1.63,4.74,2.85,5.12,4.71.48,2.34-1.83,4.36-1.99,6.52-.19,2.59,2.41,4.71,2.01,7.18-.32,1.99-4.16,3.17-5.19,4.9-1.04,1.76-.3,4.5-1.21,6.35-1.22,2.49-5.5,1.04-7.63,2.46-1.67,1.11-2.75,4.67-4.74,5.09-2.18.47-4.55-2.05-6.75-2.1s-4.43,2.34-6.54,2.14c-2.31-.22-3.29-3.95-5.08-5.14s-4.47-.4-6.39-1.3c-2.66-1.24-1.16-5.34-2.45-7.51-1.02-1.72-4.78-2.89-5.17-4.79-.5-2.45,2.12-4.63,1.99-7.16-.11-2.24-2.47-4.29-1.99-6.65.39-1.9,4.16-3.09,5.17-4.79,1.17-1.97.09-5.65,1.8-7.15,1.62-1.41,5.1-.37,7.04-1.66C15.85,3.95,16.81.32,19.05.02ZM23.72,5.45C9.17,6.59.79,23.05,8,35.71c7.39,12.98,26.09,13.71,34.43,1.31,9.64-14.32-1.64-32.91-18.72-31.58Z"/>
      <path class="cls-1" d="M40.76,46.52l4.52,28.92c-.11.32-.59.23-.83.11-2.66-1.26-5.51-3.73-8.14-4.84-.71-.3-1.06-.35-1.72.09l-6.56,7.44c-1.04.86-1.14-1.77-1.25-2.43-1.38-8.12-2.52-16.28-3.79-24.42.08-.23,1.56-.85,1.87-.91,2.67-.54,4.68,2.48,7.83,1.91,2.85-.52,3.63-4.92,5.89-5.58.73-.21,1.45-.09,2.17-.29Z"/>
      <path class="cls-1" d="M21.85,51.94l3.15,19.86-1,6.44c-.18.23-.49.25-.71.06l-5.92-6.82c-.97-.98-1.31-1.34-2.67-.65-2.71,1.37-5.2,3.3-7.89,4.71l-.73.04,4.43-29.07c.71.17,1.46.08,2.17.29,2.01.59,2.89,4.21,5.06,5.28,1.42.7,2.72.29,4.12-.15Z"/>
      <path class="cls-1" d="M24.72,6.84c14.7-.81,24.55,15.26,17.28,28.12-6.66,11.76-23.33,12.8-31.42,1.97C1.51,24.8,9.75,7.67,24.72,6.84ZM30.75,26.04c.95-1.08,4.27-4.47,4.65-5.5.79-2.11-1.9-3.73-3.47-2.08l-8.76,9.9-3.78-4.29c-1.67-1.79-4.46-.02-3.46,2.2.89,1.96,4.4,4.5,5.59,6.51.93.88,2.02,1.03,3.05.2,2.01-2.36,4.13-4.62,6.17-6.94Z"/>
    </g>
  </g>
</svg>