<?xml version="1.0" encoding="UTF-8"?>
<svg id="Layer_2" data-name="Layer 2" xmlns="http://www.w3.org/2000/svg" viewBox="0 0 86.63 54.13">
  <defs>
    <style>
      .cls-1 {
        fill: #ed1c24;
      }
    </style>
  </defs>
  <g id="Layer_18" data-name="Layer 18">
    <path class="cls-1" d="M85.99,14.37c-.22.22-1.23.62-1.56.66-3.06.34-2.78-4.1-4.08-5.86l-12.94,21.41c-1.15,1.46-3.11,1.89-4.73.95l-11.93-7.66-11.8,13.78c-.85,1.05-2.42,1.87-3.78,1.75-2.06-.19-8.01-3.93-10.27-5.03-.64-.31-2.29-1.22-2.83-.99l-8.31,9.64-.14.59c2.06,4.42-.53,9.84-5.54,10.44-10.23,1.22-10.77-13.66-1.43-14.35,1.15-.08,2.7.48,3.48-.03,2.88-3.07,5.33-6.66,8.26-9.67,1.26-1.29,2.65-2.32,4.56-1.92l12.43,5.99,12.7-14.61c1.16-1.06,2.94-1.22,4.35-.58l11.06,7.46.95-.13,11.31-19.02-.1-.69c-1.9.43-6.43,2.87-7.13-.2-.42-1.86.15-2.66,1.78-3.37,1.76-.77,7.66-2.52,9.53-2.81,1.95-.29,2.71-.23,3.54,1.61.73,1.63,3.02,8.66,3.24,10.29.1.71-.11,1.83-.61,2.34ZM6.4,44.76c-2.92.66-1.61,5.81,2.07,4.12,1.84-.84,1.09-4.84-2.07-4.12Z"/>
  </g>
</svg>